<?xml version="1.0" encoding="UTF-8"?>
<!DOCTYPE svg PUBLIC "-//W3C//DTD SVG 1.1//EN" "http://www.w3.org/Graphics/SVG/1.1/DTD/svg11.dtd">
<!-- Creator: CorelDRAW -->
<svg xmlns="http://www.w3.org/2000/svg" xml:space="preserve" width="400px" height="400px" version="1.1" style="shape-rendering:geometricPrecision; text-rendering:geometricPrecision; image-rendering:optimizeQuality; fill-rule:evenodd; clip-rule:evenodd"
viewBox="0 0 400 400"
 xmlns:xlink="http://www.w3.org/1999/xlink"
 xmlns:xodm="http://www.corel.com/coreldraw/odm/2003">
 <defs>
  <style type="text/css">
   <![CDATA[
    .fil3 {fill:#050501}
    .fil28 {fill:#090501}
    .fil24 {fill:#0C0A04}
    .fil14 {fill:#0D0100}
    .fil1 {fill:#120D0B}
    .fil0 {fill:#121211}
    .fil7 {fill:#190B0A}
    .fil9 {fill:#191916}
    .fil4 {fill:#2B2926}
    .fil5 {fill:#312E2C}
    .fil15 {fill:#775738}
    .fil2 {fill:#84231C}
    .fil22 {fill:#88643C}
    .fil6 {fill:#8D714D}
    .fil20 {fill:#A47C53}
    .fil17 {fill:#A5784B}
    .fil12 {fill:#AC845A}
    .fil13 {fill:#B48B5C}
    .fil18 {fill:#BC925D}
    .fil23 {fill:#C49A63}
    .fil8 {fill:#C65847}
    .fil16 {fill:#D3B383}
    .fil21 {fill:#D4AB74}
    .fil27 {fill:#D4AD7B}
    .fil10 {fill:#D8B8A7}
    .fil19 {fill:#DCBA84}
    .fil26 {fill:#DCBB8B}
    .fil25 {fill:#DDC18A}
    .fil11 {fill:#E7C89A}
   ]]>
  </style>
 </defs>
 <g id="Capa_x0020_1">
  <metadata id="CorelCorpID_0Corel-Layer"/>
  <image id="logo.png" x="0" y="0" width="400" height="400" xlink:href="logo_Images\logo_ImgID1.png"/>
  <g id="_1813874574624">
   <path class="fil0" d="M45.89 211.99l6.3 -0.52 2.08 -5.4c1.81,2.21 1.12,2.4 2.47,5.16l5.96 0.6 -4.28 3.42c-0.06,3.53 0.7,3.15 1.31,6.2l-5.16 -3.31 -4.8 3.56 1.26 -6.11 -5.14 -3.6zm294.77 3.07l1.43 6.08 -4.82 -3.28 -5.12 4.15c-0.18,-3.76 0.69,-3.25 1.29,-6.8l-4.76 -3.42 6.06 -0.7 1.86 -5.59c2.28,2.39 1.1,2.63 2.5,5.59l6.34 0.27 -4.78 3.7zm-30.02 -50.8c5.46,-1.89 39.41,-9.51 44.19,-9.48l3.99 20.71 -6.93 1.47 -2.17 -12.38c-3.54,0.2 -8.03,0.92 -11.16,2.59l1.76 10.93 -6.85 1.03 -2.24 -10.65 -11.95 2.8 1.72 12.1 -6.32 1.37c-1.29,-3.51 -4.17,-16.94 -4.04,-20.49zm-276.34 4.65c-0.05,-3.6 1.18,-7.82 2.22,-11.49 2.13,-7.58 2.94,-12.8 14.9,-9.8 6.28,1.57 4.61,0.92 8.62,4.62 4.75,-3.11 5.64,-1.92 11.14,-0.39 4.05,1.13 7.06,0.97 9.48,4.31 3.35,4.59 1.7,5.95 0.38,11.23 -0.92,3.68 -1.95,7.37 -2.91,11.4l-43.83 -9.88zm265.34 -35.01c0.41,-0.28 2.03,-1.17 2.55,-1.45 8.1,-4.35 31.6,-17.97 36.37,-18.31 2.47,6.95 11.12,16.98 5.23,24.12 -0.45,0.54 -9.41,5.61 -10.63,6.17 -4.71,2.13 -6.79,-1.09 -10.8,-2.9l-13.61 16.41 -3.6 -7.93 12.59 -15.59c-5.51,0.85 -11.24,6.27 -16.81,7.77l-3.88 -6.08 2.59 -2.21zm-235.71 -28.02c5,-1 22.11,11.73 27.28,14.86 5.37,3.25 8.29,7.24 4.68,13.5 -3.06,5.3 -4.08,9.71 -10.5,10.47 -5.98,0.71 -22.02,-11.42 -28.09,-14.81 -5.57,-3.12 -8.47,-8.05 -4.59,-13.96 4.15,-6.34 3.15,-8.43 11.22,-10.06zm217.15 7.92c-1.4,-1.02 -0.95,-5.68 -0.72,-7.89 2.74,-3.22 20.79,-20.1 23.9,-21.55 2.36,-4.47 7.99,-4.1 11,-1.26 0.54,0.51 7,7.14 7.09,7.31 4.21,7.79 -3.79,13.96 -8.88,18.26 -5.08,4.31 -9.92,10.11 -14.83,13.98 -6.39,5.03 -14.81,-3.39 -17.56,-8.85zm-188.51 -58.27l-24.61 23.64c-10.95,11.64 -17.69,23.36 -20.47,26.31 -7.52,13.71 -19.75,36.57 -21.6,51.76 -2.4,6.74 -4.46,21.14 -4.98,28.43 -0.57,7.95 0.76,26.63 -0.37,32.02 1.15,1.84 4.76,24.04 6.22,29.14 2.13,7.45 6.06,19.86 10.04,26.1l73.43 0.07 4.34 -0.29c-1.13,-2.02 -6.42,-8.22 -8.37,-10.91 -2.66,-3.69 -5.17,-7.77 -7.3,-11.88 -4.95,-9.59 -8.04,-18.21 -10.32,-28.87 -1.88,-12.2 -3.03,-20.72 -1.72,-33.28 0.68,-6.55 3.22,-25.15 7.94,-29.01 0.2,-6.59 11.86,-24.21 16.37,-29.18 3.86,-4.26 6.93,-8.23 11.31,-11.9 1.65,-1.38 11.41,-9.17 11.92,-9.88 1.28,-2.8 7.96,-6.43 3.38,-13.82 -1.12,4.38 -0.29,0.73 -1.63,2.47 -3.32,0.45 -2.94,2.04 -6.65,2.91l-16.84 -27.44 -6.94 -10.13c-4.4,5.24 7.26,14.8 6,21.7l3.44 1.41c0.44,3.43 1.18,2.74 -0.49,4.4 3.38,0.73 4.1,1.4 5,4.71 1.27,4.66 -1.1,-0.17 3.29,5.44l-2.26 1.34 3.93 2.52 -6.29 5.47 -13.69 -5.38 5.68 12.75 -6.03 5.16c-3.66,-6.28 -5.52,-13.93 -8.76,-20.04 -2.7,-5.09 -14.49,-6.09 -18.76,-10.34l-5.06 -1.33 0.72 -2.21 -2.1 -1.95c0.8,-2.75 14.84,-16.51 17.81,-19.74 1.44,-1.57 18.18,-12.88 21.21,-14.76 14.99,-9.28 36.62,-18.55 54.05,-20.94 33.97,-4.64 29.31,-5.59 66.42,0.46 3.04,0.5 5.98,0.42 8.84,1.03 2.89,0.61 4.05,1.76 6.98,2.52l18.32 7.92c4.76,1.55 8.23,3.9 12.17,6.77 2.76,2.01 3.74,1.24 5.73,2.53l-2.37 2.44 1.13 1.38 18.09 11.4 -3.8 5.65 -7.26 -3.83 -21.46 32.09 -5.3 -2.42c-3.44,0.38 -0.95,-1.17 -2.76,1.23 -1.22,1.61 -0.44,0.51 -0.59,2.51l5.29 5.64c2.86,1.5 5.67,6.48 5.61,9.73 8.66,3.94 20.31,21.21 24.83,29.7 6.82,12.79 10.77,28.7 11.67,43.17 1.8,29.08 -7.79,60.18 -27.61,81.61 1.16,2.69 0.18,1.56 4.25,1.48l72.73 -0.1c7.05,-12.28 13.51,-37.03 15.05,-51.26 2.4,-22.26 1.9,-39.4 -2.69,-61.28 -11.22,-53.46 -44.16,-81.68 -46.89,-86.78 -7.52,-6.87 -14.59,-14.3 -23.48,-20.3 -4.34,-2.93 -8.93,-6.25 -13.62,-8.8 -3.66,-2 -11.85,-5.12 -13.92,-8.01 -2.9,-0.18 -12.36,-4.57 -16.23,-5.78 -4.1,-1.29 -14.49,-3.1 -17.02,-5.5l-28.13 -3.32c-22.16,-1.78 -44.71,2.27 -65.67,8.61 -8.98,2.72 -18.18,7.02 -26.39,11.24 -3.96,2.03 -21.19,13.5 -22.76,13.8z"/>
   <path class="fil1" d="M163.12 299.44c2.33,-4.33 3.71,-5.24 8.85,-5.25 4.55,-0.01 9.2,-0.09 13.79,0.17l5.98 6.44c1.15,0.53 1.29,-0.68 0.95,0.8 0.15,7.62 1.38,46.26 -1.8,50.08 -1.87,2.25 -4.72,4.8 -7.67,5.17 -2.29,0.29 -10.46,0.26 -12.88,0.08 -4,-0.29 -4.84,-2.27 -7.81,-5.05 -3.23,-3.02 -2.34,-6.94 -2.13,-11.53l9.49 -0.42c2.55,5.2 -2.27,8 9.29,7.79 4.36,-5.03 2.7,-7.29 2.91,-14.24l-2.89 -0.68c-3.71,0.27 -9.56,1.12 -12.43,-1.17 -8.45,-6.76 -6.34,-9.4 -6.42,-21.23 -0.04,-4.27 -1.54,-10.83 2.77,-10.96zm77.46 11.87c-1.37,-2.04 -0.95,-1.74 -0.94,-4.89 0.02,-6.28 -0.94,-4.11 7.66,-10.36 3.6,-2.62 6.14,-1.77 10.52,-1.75l0.5 44.09 -0.41 18 -9.91 0.36 -1.29 -0.56 0.18 -46.83 -6.31 1.94zm-90.98 45.38l-11.02 0.23 -0.08 -47.72 -7.62 2.11 -0.11 -10.11c8.82,-5.64 7.55,-7.38 19,-7.05l-0.17 62.54zm51.97 -62.2l29.63 -0.08c-0.56,8.79 -0.64,10.69 -3.21,19.17 -0.97,3.21 -3.68,13.59 -4.64,15.47l-7.56 27.56 -10.71 0.61c-0.15,-2.56 0.65,-6.35 2.38,-8.31 -0.25,-8.25 10.34,-34.56 11.78,-44.84l-18.78 -0.42c-0.48,-8.01 -0.75,-7.33 1.11,-9.16zm69.64 -15.29l-0.8 1.38 -150.29 0.15 -0.96 4.03c-11.9,1.29 -81.56,-2.06 -85.34,0.85 2.71,4.05 15.55,1.94 20.58,1.93 14.64,-0.05 55.94,-0.89 65.21,0.2l-0.09 3.84c-12.6,3.09 -76.88,-2.35 -81.76,1.22 2.65,4.1 15,2.01 19.84,1.96 13.03,-0.15 54.14,-0.89 62.05,0.13l-0.12 3.95c-11.84,2.7 -72.14,-1.79 -77.16,1.16 2.43,3.78 13.97,1.9 18.43,1.87 12.17,-0.07 52.14,-0.96 58.99,0.11l-0.21 4.06c-11.17,2.42 -68.05,-1.8 -72.99,1.03 3.51,3.88 12.19,2.11 17.41,2.13 12.74,0.04 47.77,-0.88 55.59,0.11l-0.11 3.81c-10.97,2.31 -63.03,-1.85 -67.27,1.28 2.98,3.54 11.33,1.78 15.79,1.78 10.72,0 46.09,-0.8 51.8,0.16l-0.36 3.95c-5.54,0.84 -43.78,0.34 -54.67,0.18l-6.46 1.13c3.09,3.4 9.99,1.85 14.49,1.82 5.34,-0.03 10.66,0.01 16,-0.07 8.01,-0.13 23.6,-0.88 30.94,0.25l-0.21 3.94c-11.99,1.56 -51.6,-1.97 -55.49,1.33 4.98,4.38 45.51,-0.62 55.63,1.93l-0.21 4.06 -35.61 0.06c-0.74,1.4 -1.66,-0.07 0.08,1.82 7.57,8.81 36.5,24.3 47.86,28.9 20.17,8.15 42.37,13.15 64.21,13.12 18.88,-0.03 46.74,-5.52 64.03,-13.25 31.73,-14.19 29.97,-18.82 48.36,-29.06 -2.12,-2.54 -0.64,-1.65 -5.15,-1.83l-14.44 0.1c-12.84,0.01 -13.96,-1.66 -16.41,2.72 -0.76,-2.33 -0.63,-11.75 -0.25,-14.19 7.87,-0.75 38.1,-0.14 49.46,-0.02 8.15,0.08 7.1,1.44 12.51,-3.03 -12.75,-1.07 -58.12,1.83 -62.27,-0.87l0.06 -2.58c7.3,-4.63 62.68,2.57 66.9,-2.35 -2.31,-1.73 -0.5,-1.06 -4.35,-1.32 -10.82,-0.74 -57.18,1.73 -62.56,-0.27l0.24 -3.78c6.82,-0.83 44.53,-0.06 56.67,-0.03 4.84,0.01 13.35,1.9 15.77,-2.65 -2.7,-1.3 -47.32,-0.49 -56.57,-0.46 -15.94,0.06 -15.96,2.07 -16.21,-3.53 3.83,-1.81 32.79,-0.75 39.41,-0.71 5.39,0.04 35.23,1.47 37.69,-1.65 -2.92,-2.42 -15.38,-1.04 -19.29,-1.04 -9.84,-0.01 -54.53,0.82 -57.69,-0.53l-0.06 -3.26c3.65,-1.67 51.82,-0.64 62.55,-0.58 4.67,0.02 16.2,2.08 19.01,-1.79 -1.76,-1.9 -0.85,-1.2 -4.54,-1.28l-36.07 0.14c-6.89,0.04 -37.07,1.46 -41.06,-0.41l0.17 -3.22c3.68,-1.49 54.76,-0.54 65.69,-0.52 5.04,0.02 16.6,2.1 19.82,-1.91 -1.75,-1.8 -1.07,-1.19 -4.54,-1.22l-37.68 0.24c-13.87,0.06 -29.25,0.75 -43.13,-0.11l0.32 -4.21c15.16,-1.21 49.1,-0.17 67.61,-0.15 4.56,0.01 18.49,2.1 20.72,-1.75 -1.8,-1.76 -1.22,-1.25 -4.65,-1.32l-39.27 0.34c-7.45,0.07 -14.95,0.03 -22.4,0.03 -4.87,0 -18.82,-1.08 -21.85,-0.66l-1.34 2.41z"/>
   <path class="fil2" d="M272.89 328.8l1.5 -0.77c0.23,-0.08 0.49,-0.22 0.77,-0.29l11.24 -0.35c5.37,-0.04 35.74,-0.72 38.32,0.21 2.43,0.88 0.19,-0.61 1.92,1.2 -3.43,3.15 -21.16,1.59 -26.64,1.57l-20.83 -0.08c-3.64,0.06 -4.35,0.77 -6.28,-1.49zm18.59 -288.57c2.51,3.6 18.43,13.73 23.37,18.52 7.72,7.48 13.8,13.3 20.75,21.65 13.79,16.54 23.36,33.53 31.14,53.62 15.17,39.19 16.15,86.83 1.35,126.11 -4.52,12.01 -3.13,13.14 -8.95,12.68 -3.03,0.02 -3.82,0.98 -7.91,1.05l-31.23 0.13c-13.46,0.23 -26.95,0.01 -40.38,-0.21l1.97 -0.77c-4.07,0.08 -3.09,1.21 -4.25,-1.48 -2.15,1.61 -3.57,2.63 -4.79,5.26 3.03,-0.42 16.98,0.66 21.85,0.66 7.45,0 14.95,0.04 22.4,-0.03l39.27 -0.34c3.43,0.07 2.85,-0.44 4.65,1.32 -2.23,3.85 -16.16,1.76 -20.72,1.75 -18.51,-0.02 -52.45,-1.06 -67.61,0.15l-0.32 4.21c13.88,0.86 29.26,0.17 43.13,0.11l37.68 -0.24c3.47,0.03 2.79,-0.58 4.54,1.22 -3.22,4.01 -14.78,1.93 -19.82,1.91 -10.93,-0.02 -62.01,-0.97 -65.69,0.52l-0.17 3.22c3.99,1.87 34.17,0.45 41.06,0.41l36.07 -0.14c3.69,0.08 2.78,-0.62 4.54,1.28 -2.81,3.87 -14.34,1.81 -19.01,1.79 -10.73,-0.06 -58.9,-1.09 -62.55,0.58l0.06 3.26c3.16,1.35 47.85,0.52 57.69,0.53 3.91,0 16.37,-1.38 19.29,1.04 -2.46,3.12 -32.3,1.69 -37.69,1.65 -6.62,-0.04 -35.58,-1.1 -39.41,0.71 0.25,5.6 0.27,3.59 16.21,3.53 9.25,-0.03 53.87,-0.84 56.57,0.46 -2.42,4.55 -10.93,2.66 -15.77,2.65 -12.14,-0.03 -49.85,-0.8 -56.67,0.03l-0.24 3.78c5.38,2 51.74,-0.47 62.56,0.27 3.85,0.26 2.04,-0.41 4.35,1.32 -4.22,4.92 -59.6,-2.28 -66.9,2.35l-0.06 2.58c4.15,2.7 49.52,-0.2 62.27,0.87 -5.41,4.47 -4.36,3.11 -12.51,3.03 -11.36,-0.12 -41.59,-0.73 -49.46,0.02 -0.38,2.44 -0.51,11.86 0.25,14.19 2.45,-4.38 3.57,-2.71 16.41,-2.72l14.44 -0.1c4.51,0.18 3.03,-0.71 5.15,1.83l3.46 0.44c3.46,-2.43 3.05,-2.35 7.45,-1.72 -6.46,10.12 -38.9,30 -51.86,35.36 -24.16,10 -44.95,15.58 -71.44,15.42 -36.26,-0.21 -69.83,-10.8 -99.98,-30.81 -4.66,-3.09 -22.26,-16.57 -24.13,-19.88 4.63,-0.6 5.34,-0.79 8.12,2.9 0.1,-1.82 1.67,-1.2 3.92,-1.42 -1.74,-1.89 -0.82,-0.42 -0.08,-1.82l35.61 -0.06 0.21 -4.06c-10.12,-2.55 -50.65,2.45 -55.63,-1.93 3.89,-3.3 43.5,0.23 55.49,-1.33l0.21 -3.94c-7.34,-1.13 -22.93,-0.38 -30.94,-0.25 -5.34,0.08 -10.66,0.04 -16,0.07 -4.5,0.03 -11.4,1.58 -14.49,-1.82l6.46 -1.13c10.89,0.16 49.13,0.66 54.67,-0.18l0.36 -3.95c-5.71,-0.96 -41.08,-0.16 -51.8,-0.16 -4.46,0 -12.81,1.76 -15.79,-1.78 4.24,-3.13 56.3,1.03 67.27,-1.28l0.11 -3.81c-7.82,-0.99 -42.85,-0.07 -55.59,-0.11 -5.22,-0.02 -13.9,1.75 -17.41,-2.13 4.94,-2.83 61.82,1.39 72.99,-1.03l0.21 -4.06c-6.85,-1.07 -46.82,-0.18 -58.99,-0.11 -4.46,0.03 -16,1.91 -18.43,-1.87 5.02,-2.95 65.32,1.54 77.16,-1.16l0.12 -3.95c-7.91,-1.02 -49.02,-0.28 -62.05,-0.13 -4.84,0.05 -17.19,2.14 -19.84,-1.96 4.88,-3.57 69.16,1.87 81.76,-1.22l0.09 -3.84c-9.27,-1.09 -50.57,-0.25 -65.21,-0.2 -5.03,0.01 -17.87,2.12 -20.58,-1.93 3.78,-2.91 73.44,0.44 85.34,-0.85l0.96 -4.03 0.11 -0.41 -68.23 -0.14c-4.55,0.01 -19.57,2.16 -21.53,-1.78 2.8,-2.13 35.88,-0.86 42.33,-0.84 14.43,0.03 28.86,0 43.29,0.03 1.79,-3.09 -0.47,-0.57 1.09,-2.27 -1.08,-2.28 -0.23,-1.74 -2.61,-2.61l-4.34 0.29 2.42 0.96c-6.94,1.32 -62.48,1.12 -75.85,0.23 -4.01,-0.27 -8.35,1.14 -9.22,-1.57 -2.38,-9.25 -6.81,-18.8 -9.33,-29.16 -5.44,-22.39 -7.18,-46.75 -3.39,-69.64 1.93,-11.64 5.01,-20.55 7.5,-31.54l-2.67 0.78c0.08,4.75 -2.7,8.08 -6.94,10.67 -11.67,53.6 -5.72,98.48 21.83,146.11 21.47,37.12 59.05,66.95 99.05,81.75 48.41,17.91 102.42,13.82 147.86,-10.47 41.15,-22.02 66.97,-52.19 86.61,-94.05l7.9 -19.22c1.4,-1.09 -0.33,1.29 0.85,-1.12l2.01 -6.67c0.89,-3.14 1.63,-6.48 2.28,-9.72 2.1,-10.53 4.51,-31.18 4.47,-41.93 -0.01,-3.8 -0.45,-19.81 -1.61,-21.58 -1.55,-3.03 -3.73,-18.88 -4.91,-23.93 -1.56,-6.65 -4.35,-15.03 -6.83,-21.39 -3.61,-6.87 -6.12,-14.78 -10.27,-22.35 -3.86,-7.03 -7.79,-13.44 -12.47,-20.29 -7.38,-10.79 -21.12,-26.85 -30.7,-34.47l-1.71 0.53c-1.57,-3.5 -5.16,-5.53 -9.13,-5.6 -1.36,-3.24 -6.73,-8.38 -8.52,-7.88l-0.71 -2.23c-0.65,-1.34 0.3,-0.31 -1.1,-0.53 -2.68,-0.27 -3.85,0.6 -6.17,1.54z"/>
   <path class="fil3" d="M183.72 241.68c1.97,-3.87 7.32,-3.26 11.94,-2.91 -3.9,2.72 -7.21,3.46 -11.94,2.91zm66.25 -7.66c3.37,7.64 3.93,4.95 7.87,9.19 -5.53,-0.06 -8.29,-3.58 -7.87,-9.19zm-70.01 -4.45c0.9,-3.83 2.43,-3.49 4.4,-6.76 2.19,-3.63 1.79,-5.56 5.43,-6.13 2.45,5.86 -2.89,13.38 -9.83,12.89zm28.93 -14.38c-4.49,0.54 -7.19,-0.99 -10.99,0.28 1.78,3.82 5,3.25 8.23,6.33 2.06,9.29 -8.75,10.7 -15.66,9.29 -0.18,-4.18 3.01,-7.08 3.29,-11.91 0.61,-10.39 -7.24,-3.71 -4.41,-8.92 1.51,-2.76 8.4,-2.13 11.05,-1.08 3.21,1.28 6.18,4.08 8.49,6.01zm-37.27 -17.64l1.55 1.92c0.71,0.85 0.32,0.49 1.19,1.21 7.4,-0.18 12.36,1.44 10.4,10.34 -1.32,6 -4.29,8.61 -8.12,12.18 -1.17,2.3 -0.31,1.72 -3.37,2.39l-1.22 1.45c-0.91,-2.23 1.31,-0.04 0.09,-3.15 -1.91,2.09 -3.49,4.1 -6.54,4.47l2.52 -2.76c-1.08,-1.69 0.86,-2.5 -2.34,0.06 -1.96,1.56 0.07,0.67 -2.47,1.69 -0.1,-4.01 2.63,-5.29 0.28,-6.52 -0.43,2.03 -0.79,2.55 -2.64,3.94 -0.29,-3.76 0.35,-4.5 1.11,-7.78l-4.5 3.43 1.59 -5.96 -5.08 2.8c-0.75,-1.86 -0.41,-1.27 0.81,-3.87l-4.45 2.19c-1.05,-2.21 0.66,-1.79 0.11,-3.09l-4.96 1.94c-0.63,-1.61 -0.26,-0.72 0.69,-3.4l-4.95 1.57 1.66 -2.87 -3.78 1.58c0.49,-6.55 3.91,-13.98 9.58,-16.98 5.19,-2.74 15.04,-4.95 20.82,-4.03 21.2,-3.38 21.97,9.79 18.87,14.17l-4.15 -6.14c-2.59,-3.62 -3.58,-1.26 -9.72,-4.13 -1.11,1.29 -3.51,1.17 -5.88,2.19l2.9 1.16zm-35.57 11.52c-0.37,-5.64 5.59,-19.06 12.3,-16.18 -2.06,2.12 -5.6,5.04 -7.31,7.29 -1.78,2.32 -2.97,6.35 -4.99,8.89zm2.37 -20.3c-2.11,-2.59 -3.21,-1.14 -4.93,-3.8 6.07,-2.64 11.61,-4.36 17.14,-8.79l0.69 4.48 4.05 -1.46 0.19 6.51c2.46,-1.91 0.6,-1.92 3.28,-2.19l2.2 4.5c-0.55,0.41 -0.51,0.44 -1.64,0.95l-3.72 1.13c-11.28,2.99 -9.34,-0.76 -17.26,-1.33zm97.98 1.95c0.83,0.89 0.46,1.06 2.23,2.19 -1.28,2.65 -2.21,2.95 -4.92,4.26 -6.26,2.74 -14.08,2.18 -20.91,2.54l10.94 1.43c-3.27,3.62 -6.73,4.73 -11.73,4.52 -6.68,-0.28 -7.13,-4.06 -7.66,-9.8 0.21,-0.1 0.5,-0.16 0.68,-0.2l2.18 -0.45c0.89,-0.12 1.97,-0.04 3.31,-0.22 -2.09,-3.19 -3.84,-5.3 -4.32,-9.45 3.98,-3.3 4.79,-3.84 9.66,-5.13l-7.07 -0.66c0.16,-5.31 2.43,-13.87 7.05,-16.85l-0.88 8.28c3.96,-0.03 6.9,-0.59 9.9,2.68l-4.97 1.17c7.75,1.54 9.38,2.84 14.54,8.08l6.51 -0.82c1.91,3.63 -2.59,1.04 2.99,3.34 3.56,1.46 1.73,0.44 4.51,2.83 -6.6,0.38 -7.7,1.83 -12.04,2.26zm-4.9 -31.69c-1.38,-6.3 1.07,-11.29 8.22,-9.87 1.8,0.36 5.15,1.33 5.93,1.94l2.3 2.55c1.58,1.73 0.63,-0.73 1.61,2.64l-9.57 -0.7c-0.61,-1.56 0,-1.27 0.04,-2.54 0,-0.12 0.09,-0.18 0.07,-0.27 -7.42,0.38 -4.66,5.19 -8.6,6.25zm-28.31 -3.93l-1.15 2.95 1.15 6.04c-7.48,-0.28 -7.35,0.2 -14,1.07 7.11,1.18 15.17,2.07 17.44,10.37l-1.37 -0.18 -1.04 0.73 1.56 2.31c-1.63,2.25 -0.02,0.33 -2.77,2.22 2.14,2.25 1.47,0.6 1.46,3.13 -3.32,2.27 -6.98,1.57 -10.84,1.93 2.58,1.74 3.79,1.09 5.6,3.85 -1.91,1.53 -4.63,2.14 -7.1,2.64 -9.19,1.85 1.08,-4.92 -22.49,-4.86 -3.31,-3.69 -6.1,-10 -5.39,-15.15l6.14 1.99c-1.27,-3.35 -7.22,-5.42 -9.32,-9.1 3.66,-0.24 12.01,1.04 14.4,3.21l-9.85 -4.87c7.3,-3.42 12.52,-2.75 20.13,-3.63 -4.22,-1.75 -5.31,0.46 -4.01,-3.45l-5.87 -0.59 5.32 -3.66 1 -1.66c1.79,-3.34 1.92,-4.06 0.76,-7.82 -2.02,-0.62 -0.45,-1.1 -1.42,1.42 -0.3,7.38 -8.33,12.06 -14.9,11.8l6.82 -6.01c-7.23,0.19 -14.23,5.28 -21.38,5.26 0.59,-2.9 3.13,-5.47 5.14,-7.64 -4.66,1.28 -8.3,6.34 -12.6,6.93l1.69 -4.5c-3.54,1.97 -5.98,7.66 -5.36,11.7 5.18,1.44 7.15,-1.34 12.46,2.6 -3.67,5.7 -15.05,12.17 -22.09,11.38l5.93 -5.78c-6.32,-0.16 -12,2.11 -17.97,4.29l0.03 2.26c3.59,0.27 7.77,6.42 9.76,9.54l3.72 1.99 5.64 0.96c1.93,1.94 3.86,1.65 6.38,3.3l-8.18 9.4c-5.99,-2.69 -4.78,-2.29 -11.73,-3.56l4.49 -7.1 -1.31 0.5 -0.07 -0.91c-1.5,6.59 -5.98,6.69 -6.18,16 -0.26,12.41 11.96,10.37 17.62,14.12 10.94,7.26 19.08,7.39 18.75,12.02l-10.69 -5.17 3.49 6.51c-4.32,-3.58 -4.79,-4.16 -8.55,-8.61 -3.81,5.01 1.54,7.58 9.49,12.39 4.67,2.83 12.37,6.29 17.53,8 7.85,2.6 39.46,9.53 38.49,-4.67 -2.64,2.09 -2.06,3.25 -5.56,4.47 3.03,-4.98 12.2,-15.55 13.33,-20.3 -1.37,2.23 -4.45,4.74 -6.96,5.44l2.94 -9.44c4.67,-1.12 6.46,-1.57 9.42,-5.8l-0.03 2.68c2.35,-4.08 6.14,-4.65 10.25,-7.54 2.83,-1.98 6.98,-8.84 8.5,-9.41 1.66,2.81 -0.04,6.13 1.71,11 1.51,4.24 0.91,6.62 2.43,11.1 1.17,3.42 3.63,6.43 4.13,9.63 0.79,5.04 0.21,5.79 3.27,10.22 4.22,6.11 9.6,10.3 17.38,5.74 8.99,-5.26 8.06,-11.1 8.85,-12.76 0.55,-1.15 0.64,-0.29 1.41,-2.14l-5.15 2.24c3.86,-3.27 10.32,-6.49 10.59,-12.23l-0.3 -2.37c-2.77,3.86 -0.84,0.33 -3.41,1.32 -1.3,0.5 0.1,0.81 -5.43,1.52 -3.64,-0.49 -3.88,0.73 -6.35,0.37 -0.14,-0.02 -0.38,-0.08 -0.51,-0.12 -0.12,-0.03 -0.32,-0.15 -0.42,-0.19 -1.66,-0.67 0.76,-0.92 -2.16,-0.89 -0.87,0.01 -1.36,0.46 -3.54,0.37l1.69 -3.27 -5.02 1.03 1.68 -3.28c-3.61,0.11 -1.64,0.98 -4.48,0.02l2.11 -4.17 -3.89 1.47 2.36 -4.58c-1.62,-0.54 -0.44,-0.22 -3.03,0.93 0.46,-4.1 1.52,-1.49 0.51,-5.5l-1.26 -1.16c-4.74,2.67 -5.11,16.74 -3.22,21.7 3.41,8.95 11.06,7.86 19.13,8.25 -6.28,2.62 -15.61,0.97 -19.51,-5.58 -4.85,-8.15 -1.24,-14.64 -0.03,-22.96l-5.89 1.02c-0.54,-6.78 2.86,-6.52 7.71,-8.82l-0.63 0.42 -0.59 -1.92c4.08,-3.62 9.61,-2.09 14.48,-1.78 1.51,-7.13 3.4,-15.56 -0.32,-22.05 -0.14,5.06 0.26,11.99 -4.87,14.42 0.47,-3.96 1.62,-3.91 1.07,-8.59l-2.64 5.51c-2.01,-2.83 -0.46,-6.23 -3.51,-10.42 -2.77,-3.82 -6.32,-2.86 -9.27,-4.79 4.44,-2.93 4.86,-0.19 8.25,-2.35l-4.75 -1.94 -3.09 0.99c-0.63,-1.67 -2.96,0.49 0.15,-3.17 -4.25,0.33 -1.13,0.73 -3.84,-1.1l4.25 -0.99 -2.23 -2.07 -6.86 -0.25c-0.54,2.91 3.68,2.77 -1.65,3.7 -1.37,-3.04 -0.22,-3.99 2,-6.47 4.54,-0.49 4.05,0.59 7.83,2.54l5.01 1.48c2.01,-3.01 1.68,-3.61 4.41,-4.44 -5.11,-3.69 -5.5,-3.27 -6.65,-5.48 2.29,-3.48 0.87,-0.41 4.24,-2.11 -1.87,-2.26 -0.53,-1.1 -2.61,-1.34l-1.96 -0.06c-4.75,-1.01 -7.28,-4.55 -8.98,-8.63 -2.5,1.52 -3.29,0.95 -5.48,3.6 -2.33,2.84 -0.6,2.5 -4.54,4.55l-3.24 -2.19 -1.47 9.42 -2.98 -5.76c-0.09,4.22 1.01,4.53 1.35,7.89 -3.4,-1.69 -2.79,-4.73 -1.95,-7.63l1.61 -9.13 -2.17 -2.15 -10.72 27.26c-1.04,-6.28 1.8,-14.01 3.77,-19.84l-12.17 4.1c2.62,1.6 2.54,0.51 5.41,1.77 0.68,2.86 0.25,3.86 -2.67,5.1z"/>
   <path class="fil4" d="M193.59 47.2l7.38 -0.66 0.12 -6.53c1.66,3.57 0.68,7.17 0.51,11.34l-0.7 1.98c-9.77,0.24 -6.65,-1.07 -9.66,-0.69 -3.54,0.45 -1.87,0.64 -3.08,1.94 3.6,-0.11 10.16,-1.26 12.47,0.85 2.81,1.62 2.14,4.29 2.13,7.78 -0.02,3.68 1.38,11.88 -0.14,16.74 -1.02,3.28 -0.11,0.67 -1.9,3.09 -0.61,0.83 -1.75,2.51 -2.23,3.36 -9.02,1.42 -22.6,2.37 -23.8,-9.01 1.95,-0.85 -0.06,-0.91 2.63,-0.06l-1.36 -2.71c-0.24,-0.82 -1.64,-33.3 -1.41,-35.49 0.71,-6.61 6.52,-7.18 11.84,-7.39 14.33,-0.55 13.48,1.59 13.53,14.14l-8.28 0.07c-0.76,2.16 -0.8,1.25 1.95,1.25zm-34.73 9.1c3.37,3.55 5.36,18.97 9.28,23.99 1.21,-1.97 1.71,-0.89 2.14,1.26 0.22,1.06 -0.05,3.39 -0.41,4.84 -0.62,2.55 -0.12,1.91 -2.21,3.7 -1.73,1.5 -3.84,3.97 -10.25,-2.74 -2.84,-2.96 -2.04,-2.06 -6.91,-4.15l1.14 4.59 -6.79 2.82 -9.93 -25.06 -6.32 -19.15c2.84,-1.81 5.02,-2.74 8.35,-2.61 2.14,2.22 10.2,11.56 10.64,13.89l5.12 4.58 -0.91 -2.94 -6.72 -19.45c0.78,-2.88 0.52,-2.39 3.24,-3.75l2.19 -1.07c1.9,-0.66 2.83,-0.53 4.46,0.96 0.37,0.33 1.21,1.27 1.62,1.77 -2.15,0.65 -0.4,1.84 -2.46,0.04 0.03,6.36 4.87,12.38 4.73,18.48zm-86.42 31.09c2.77,-1.55 2.35,-1.96 4.42,-4.15 3.54,0.24 9.82,4.03 13.38,5.69l-0.28 -2.81 -4.86 -10.98 6.09 -5.22c1.89,2.17 6.01,11.91 6.13,14.8 5.35,5.37 -0.43,6.54 9.19,10.35 4.47,1.77 9.79,4.65 14.19,5.72l2.26 -1.34c-4.39,-5.61 -2.02,-0.78 -3.29,-5.44 -0.9,-3.31 -1.62,-3.98 -5,-4.71 1.67,-1.66 0.93,-0.97 0.49,-4.4l-3.44 -1.41c1.26,-6.9 -10.4,-16.46 -6,-21.7l-1.04 -2.29c2.08,-1.87 4.64,-3.69 7.14,-4.06 2.14,2.51 5.57,8.01 6.32,11 2.72,2.26 17.32,26.46 18.01,30.01 1.34,-1.74 0.51,1.91 1.63,-2.47 4.58,7.39 -2.1,11.02 -3.38,13.82 14.74,-7.9 25.28,-13.54 42.44,-16.59 8.46,-1.5 19.38,-2.07 27.99,-1.49 10.06,0.68 16.68,3.35 25.57,4.59 -0.99,-4.42 1.17,-0.82 -0.29,-3.14 -0.01,0 -9.54,-9.52 -2.48,-11.45 -2.1,-3.14 0.31,-8.4 1.86,-11.72 1.22,0.2 2.73,0.4 3.98,0.83 4.23,1.44 2.68,0.18 3.43,3.16 2.98,-2.63 -0.99,-4.12 -2.91,-6.73 -1.75,-2.38 -0.67,-4.76 -1.35,-7.58l1.93 -0.83c-1.01,-3.22 1.71,-13.37 4.34,-15.61 5,-4.27 9.02,-1.66 14.44,0.35 6.16,2.11 7.81,5.77 6.73,12l2.36 -1.24c0.42,2.82 -0.77,6.87 -1.64,9.07l-2.19 3.23c-4.8,-0.13 -8.27,-1.24 -8.47,-7.46l2.31 0.07c-1.39,-1.91 -0.55,-0.8 -1.48,-2.86l-2.24 1.16c-0.8,-2.12 -0.54,-1.31 -2.29,0.5l-2.39 -0.49c1.75,5.63 9.28,11.46 10.03,17.1l2.35 0.39c-0.03,2.88 0.3,2.99 0.05,5.32l-1.93 11.16c-0.64,3.25 -0.99,1.71 -1.71,4.9 -3.43,0.36 -5.26,1.43 -8.06,1.41 -2.8,-0.02 -6.36,-0.69 -8.79,0.3 0.95,0.61 -1.76,1.35 2.73,0.4l6.03 0.31 10.4 3.79 2.4 1.03c0.15,-2 -0.63,-0.9 0.59,-2.51 1.81,-2.4 -0.68,-0.85 2.76,-1.23l-1.33 -2.71 17.87 -27.04 -3.83 -1.05 -0.65 -5.42 1.48 -1.37 0.42 -2.22c1.62,-2.73 1.76,-4.07 4.64,-4.46l2.37 -2.44c-1.99,-1.29 -2.97,-0.52 -5.73,-2.53 -3.94,-2.87 -7.41,-5.22 -12.17,-6.77l-18.32 -7.92c-2.93,-0.76 -4.09,-1.91 -6.98,-2.52 -2.86,-0.61 -5.8,-0.53 -8.84,-1.03 -37.11,-6.05 -32.45,-5.1 -66.42,-0.46 -17.43,2.39 -39.06,11.66 -54.05,20.94 -3.03,1.88 -19.77,13.19 -21.21,14.76 -2.97,3.23 -17.01,16.99 -17.81,19.74l2.1 1.95z"/>
   <path class="fil0" d="M270.1 129.13l-5.04 14.57 -1.64 -0.78c-3.21,0.22 -1.51,-0.81 -3.11,1.72 2,0.97 1.29,-0.41 1.14,1.52 -3.84,3.1 -2.01,2.74 -3.44,7.17 -1.83,5.62 -3.23,0.11 -4.84,6.64 5.55,4.52 9.7,3.52 13.32,12.02 3.53,8.28 1.55,14.22 0.58,22.39 8.1,4.34 18.89,9.97 20.41,22.74 1,8.47 -2.66,9.51 -5.61,15.18 -3.12,5.98 -1.81,8.32 -7.54,14.02 -13.4,13.31 -26.14,2.43 -28.45,-12.08 -0.65,-4.07 -1.59,-4.62 -3.15,-8.2 -2.09,-4.8 -2.63,-12.56 -4.28,-18.18 -2.88,1.23 -7.4,5.68 -10.91,7.68 -4.83,2.76 -6,5.84 -8.78,10.41 -12.43,20.43 -4.53,-0.36 -10.41,27.75 4.31,3.02 2.65,1.17 4.09,6.59 2.98,0.76 4.64,0.84 6.15,3.5 3.2,5.64 -1.2,0.57 5.05,4.53 13.26,8.39 -5.03,7.74 31.56,8.06 17.21,0.16 9.38,-0.04 16.18,-3.87 0.09,-1.52 4.08,-5.57 5.6,-7.5 7.43,-9.43 9.17,-11.86 14.61,-23.71 5.94,-12.94 9,-28.6 9.22,-42.9 0.42,-26.73 -10.63,-56.79 -30,-74.71l-0.71 5.44z"/>
   <path class="fil5" d="M113.96 140.42c-0.58,4.32 -3.73,6.48 0.9,7.2 -10.46,2.24 -2.73,2.26 -7.9,4.8 0.35,3.48 1.66,-2.43 0.8,1.66l-1.29 1.58c-1.78,2.22 -0.46,0.58 -1.31,2.09l-3.64 7.51c0.14,2.65 2.54,3.83 4.32,5.15 -0.76,0.48 -2.66,1.36 -2.8,1.47 -0.06,0.05 -0.23,0.19 -0.29,0.24l-2.09 2.4c4.28,2.37 0.81,-1.47 3.65,0.53 10.7,-5.91 14.36,-17.41 27.12,-23.65 10.12,-4.95 6.19,-4.85 12.58,-12.99 14.57,-18.56 31.28,-8.09 36.44,-9.07 4.67,-0.88 6.16,-1.95 11.55,-1.77 6.97,0.23 20.87,3.19 26.62,-10.56 3.49,-8.33 4.57,-8.86 9.21,-15.9 -4.51,0.63 -5.51,0.05 -9.5,-0.43 -4.92,-0.58 -4.5,-1.27 -8.12,-2.04 -3.77,-0.81 -15.7,-0.91 -19.86,-0.63 -11.99,0.8 -22,3.27 -33.02,7.36 -5.13,1.91 -9.32,4.65 -14.01,6.99 -8.14,4.09 -4.61,2.76 -11.55,8.28 -5.61,4.46 -15.26,12.93 -17.81,19.78z"/>
   <path class="fil6" d="M212.15 276.29c4.05,-3.24 9.33,-3.99 13.3,0.04l-13.3 -0.04zm-6.33 0.08c2.19,-4.36 11.88,-8.52 16.15,-5.58 -5.94,0.86 -12.05,5.5 -16.15,5.58zm-60.27 -0.74l-1.21 2.79 -20.22 -0.31 2.28 -2.2 -2.33 0.1 -3.38 -3.7c1.18,-4.71 3.44,-8.8 8.1,-10.62l-0.23 -1.84 -3.45 0.84c2.37,-7.32 10.33,-5.55 14.32,-7.65 -4.54,-0.9 -6.75,-0.29 -11.07,0.49 1.56,-3.03 1.98,-2.73 5.12,-4.1 -0.02,-0.02 -5.6,-1.76 1.04,-8.37 4.2,2.06 3.54,6.51 30.97,15.89 16.76,5.73 23.08,4.98 39.08,0.18 -7.65,6.05 -19.73,7.11 -28.44,9.8 18.99,1.65 24.99,-8.62 33.69,-9.58 -0.05,3.23 -2.67,2.82 -3.77,5.55 4.63,-0.59 1.14,-1.79 5.43,-0.12 2.95,1.15 3.61,0.21 5.66,2.33 0.39,4.75 -4.12,3.95 -8.52,6.71 -3.82,2.39 -5.85,4.96 -10.65,4.3l6.52 -7.93c-4.41,1.34 -6.64,4.31 -10.31,6.78 -3.78,2.55 -10.42,1.49 -14.98,1.49 -5.94,0.01 -30.24,1.24 -33.65,-0.83zm13.21 -29.53c-2.87,-1.95 -6.69,-4.55 -10.07,-6.85 -2.24,-1.52 -8.55,-7.34 -8.7,-7.39 1.3,1.85 25.15,13.76 28.86,15.33 11.92,5.03 25.89,4.95 38.09,0.94 -0.93,4.89 0.1,5.57 -4.88,7.49 -16.18,6.25 -36.72,0.54 -51.6,-6.92 -2.14,-1.08 -6.39,-3.27 -8.23,-4.58 -2.34,-1.65 -3.29,-3.64 -5.73,-5.3 6.08,3.8 11.04,8.83 19.5,9.06 -3.99,-3.56 -14.07,-6.61 -17.16,-12.87 1.16,3.29 15.41,11.23 19.92,11.09zm103.37 -71.64c-3.43,-2.92 -1.62,-3.99 -5.91,-6.68 -2.29,-1.42 -5.58,-3.17 -5.54,-5.87 4.53,-0.08 11.95,6.81 11.45,12.55zm-12.75 -27.66c2.08,0.24 0.74,-0.92 2.61,1.34 -3.37,1.7 -1.95,-1.37 -4.24,2.11 1.15,2.21 1.54,1.79 6.65,5.48 -2.73,0.83 -2.4,1.43 -4.41,4.44 -1.73,2.96 -1.1,0.52 -3.99,4.19l2.42 1.15 4.75 1.94c-3.39,2.16 -3.81,-0.58 -8.25,2.35 2.95,1.93 6.5,0.97 9.27,4.79 3.05,4.19 1.5,7.59 3.51,10.42l2.64 -5.51c0.55,4.68 -0.6,4.63 -1.07,8.59 5.13,-2.43 4.73,-9.36 4.87,-14.42 3.72,6.49 1.83,14.92 0.32,22.05 -4.87,-0.31 -10.4,-1.84 -14.48,1.78 2.85,0.04 5.16,-0.7 7.54,-0.5 3.27,0.26 3.42,0.53 7.3,0.53 7.55,0.01 15.41,8.1 18.65,13.38 1.67,2.72 4.18,11.1 0.99,12.98 -0.27,5.74 -6.73,8.96 -10.59,12.23l5.15 -2.24c-0.77,1.85 -0.86,0.99 -1.41,2.14 -0.79,1.66 0.14,7.5 -8.85,12.76 -7.78,4.56 -13.16,0.37 -17.38,-5.74 -3.06,-4.43 -2.48,-5.18 -3.27,-10.22 -0.5,-3.2 -2.96,-6.21 -4.13,-9.63 -1.52,-4.48 -0.92,-6.86 -2.43,-11.1 -1.75,-4.87 -0.05,-8.19 -1.71,-11 -1.52,0.57 -5.67,7.43 -8.5,9.41 -4.11,2.89 -7.9,3.46 -10.25,7.54l0.03 -2.68c-2.96,4.23 -4.75,4.68 -9.42,5.8l-2.94 9.44c2.51,-0.7 5.59,-3.21 6.96,-5.44 -1.13,4.75 -10.3,15.32 -13.33,20.3 3.5,-1.22 2.92,-2.38 5.56,-4.47 0.97,14.2 -30.64,7.27 -38.49,4.67 -5.16,-1.71 -12.86,-5.17 -17.53,-8 -7.95,-4.81 -13.3,-7.38 -9.49,-12.39 3.76,4.45 4.23,5.03 8.55,8.61l-3.49 -6.51 10.69 5.17c0.33,-4.63 -7.81,-4.76 -18.75,-12.02 -5.66,-3.75 -17.88,-1.71 -17.62,-14.12 0.2,-9.31 4.68,-9.41 6.18,-16l-2.77 0.48c-0.77,2.83 0.18,1.61 -1.83,2.89 -0.41,2.68 -1.55,4.72 -2.12,7.51 -0.71,3.51 -0.18,6.03 -0.35,9.44 -6.3,-1.31 -12.7,-7.97 -17.39,-12.02 -0.84,2.17 1.6,2.7 -2.07,1.12 2.99,6.15 11.98,9.67 17.82,13.72 14.3,9.91 15,5.59 20.2,10l-1.32 4.71c-1.2,3.41 -2.95,7.66 -5.26,10.28 -2.7,3.06 -12.51,26.8 -14.43,31.2 -5.19,-2.33 -13.21,-16.91 -16.4,-23 -8.09,-15.47 -7.17,-24.96 -10.4,-29.08l0.05 2.21c-2.75,0.37 -0.48,-0.42 -3.15,1.19 2.28,10.66 5.37,19.28 10.32,28.87 2.13,4.11 4.64,8.19 7.3,11.88 1.95,2.69 7.24,8.89 8.37,10.91 2.38,0.87 1.53,0.33 2.61,2.61 2.79,2.13 2.55,1.6 3.05,5l-0.11 0.41 150.29 -0.15 0.8 -1.38 -3.57 -0.37 3.74 -6.32c-6.8,3.83 1.03,4.03 -16.18,3.87 -36.59,-0.32 -18.3,0.33 -31.56,-8.06 -6.25,-3.96 -1.85,1.11 -5.05,-4.53 -1.51,-2.66 -3.17,-2.74 -6.15,-3.5 -1.44,-5.42 0.22,-3.57 -4.09,-6.59 5.88,-28.11 -2.02,-7.32 10.41,-27.75 2.78,-4.57 3.95,-7.65 8.78,-10.41 3.51,-2 8.03,-6.45 10.91,-7.68 1.65,5.62 2.19,13.38 4.28,18.18 1.56,3.58 2.5,4.13 3.15,8.2 2.31,14.51 15.05,25.39 28.45,12.08 5.73,-5.7 4.42,-8.04 7.54,-14.02 2.95,-5.67 6.61,-6.71 5.61,-15.18 -1.52,-12.77 -12.31,-18.4 -20.41,-22.74 0.97,-8.17 2.95,-14.11 -0.58,-22.39 -3.62,-8.5 -7.77,-7.5 -13.32,-12.02 1.61,-6.53 3.01,-1.02 4.84,-6.64 1.43,-4.43 -0.4,-4.07 3.44,-7.17 0.15,-1.93 0.86,-0.55 -1.14,-1.52l-1.19 1.89c-1.74,-2.89 0.48,-1.44 -2.2,-3.43 -4.79,1.77 -0.76,1.5 -6.91,1.15l-0.63 2.55z"/>
   <path class="fil7" d="M22.36 142.28c-2.49,10.99 -5.57,19.9 -7.5,31.54 -3.79,22.89 -2.05,47.25 3.39,69.64 2.52,10.36 6.95,19.91 9.33,29.16l4.19 0.4c-1.19,-6.24 -5.93,-16.06 -7.95,-23.22 -2.58,-9.13 -4.22,-16.51 -5.69,-25.96 -0.96,-13.58 -2.42,-22.28 -1.26,-36.43 0.49,-5.97 2.55,-27.85 5.84,-31.33 -0.03,-8.49 15.58,-47.52 22.51,-52 0.99,-9.41 36.84,-45.96 45.97,-50.49 1.07,-2.97 19.08,-13.25 23.1,-15.36 8.52,-4.47 17.77,-8.36 26.98,-11.4 20.94,-6.92 45.4,-9.86 67.53,-8.24 9.5,0.54 21.08,1.8 30.11,4.52 10.28,1.46 22.77,6.86 32.11,11.21 11.06,3.5 47.51,29.05 51.61,37.97 8.66,5.52 23.71,28.45 29.25,38.24 22.59,39.91 29.84,93.73 15.97,137.39 -2.25,7.06 -7.38,18.61 -8.71,24.89 5.82,0.46 4.43,-0.67 8.95,-12.68 14.8,-39.28 13.82,-86.92 -1.35,-126.11 -7.78,-20.09 -17.35,-37.08 -31.14,-53.62 -6.95,-8.35 -13.03,-14.17 -20.75,-21.65 -4.94,-4.79 -20.86,-14.92 -23.37,-18.52 -5.17,-1.74 -17.86,-10.34 -36.63,-16.78 -42.29,-14.51 -92.82,-11.37 -133.24,6.98 -23.2,10.53 -44.16,26.39 -60.92,45.47 -11.91,13.56 -36.45,48.95 -38.33,66.38z"/>
   <path class="fil8" d="M12.75 153.73c4.24,-2.59 7.02,-5.92 6.94,-10.67l2.67 -0.78c1.88,-17.43 26.42,-52.82 38.33,-66.38 16.76,-19.08 37.72,-34.94 60.92,-45.47 40.42,-18.35 90.95,-21.49 133.24,-6.98 18.77,6.44 31.46,15.04 36.63,16.78 2.32,-0.94 3.49,-1.81 6.17,-1.54 -4.45,-5.27 -30.33,-17.04 -37.74,-19.38 -15.96,-5.04 -31,-8.48 -47.76,-9.61 -31.36,-2.11 -67.92,3.34 -96.2,17.58 -47.84,24.07 -92.41,72.69 -103.2,126.45z"/>
   <path class="fil9" d="M91.94 214.43l-0.26 3.22c3.23,4.12 2.31,13.61 10.4,29.08 3.19,6.09 11.21,20.67 16.4,23 1.92,-4.4 11.73,-28.14 14.43,-31.2 2.31,-2.62 4.06,-6.87 5.26,-10.28l-4.25 -0.2c-0.59,-0.14 -0.37,-0.02 -1.44,-0.43 -11.68,-4.51 -8.37,-5.19 -12.65,-7.35 -6.74,-3.39 -3.22,-0.86 -9.48,-5.92 -2.85,-2.3 -4.12,-2.07 -5.84,-5.04 -0.74,-1.3 -6.28,-8.98 -4.67,-10.92 -1.34,-5.3 -3.17,-12.74 1.28,-16.81l3.19 -6.53c-2.84,-2 0.63,1.84 -3.65,-0.53l2.09 -2.4c0.06,-0.05 0.23,-0.19 0.29,-0.24 0.14,-0.11 2.04,-0.99 2.8,-1.47 -1.78,-1.32 -4.18,-2.5 -4.32,-5.15l3.64 -7.51c0.85,-1.51 -0.47,0.13 1.31,-2.09l1.29 -1.58c0.86,-4.09 -0.45,1.82 -0.8,-1.66 5.17,-2.54 -2.56,-2.56 7.9,-4.8 -4.63,-0.72 -1.48,-2.88 -0.9,-7.2 -8.33,3.31 -14.75,26.81 -17.85,33.52 -3.14,6.82 0.81,2.47 -1.41,8.02 -4.62,11.55 0.29,31 -2.76,32.47z"/>
   <path class="fil10" d="M137.25 385.6c1.49,-2.48 9.57,1.33 16.44,2.85 38.05,8.43 72.89,6.35 109.28,-8.06 5.18,-2.05 9.74,-4.54 14.78,-6.65 2.73,-1.77 5.12,-2.6 8.04,-4 2.85,-1.37 4.52,-3.15 7.21,-4.83 3.77,-2.34 11.54,-8.4 15.07,-8.9l-0.97 1.59 4.9 -2.59 -2.57 0.32c0.19,-0.89 -0.19,-1.62 1.3,-3.02 1.69,-1.59 2.71,-1.07 3.9,-1.12l-0.7 2.41c4.61,-4.17 13.14,-11.64 16.01,-16.46l2.78 -3.62c0.11,-0.12 0.28,-0.29 0.39,-0.41 10.98,-11.71 16.28,-19.05 24.94,-33.46 2.48,-4.12 11.37,-17.85 10.05,-22.58 -19.64,41.86 -45.46,72.03 -86.61,94.05 -45.44,24.29 -99.45,28.38 -147.86,10.47 -40,-14.8 -77.58,-44.63 -99.05,-81.75 -27.55,-47.63 -33.5,-92.51 -21.83,-146.11 10.79,-53.76 55.36,-102.38 103.2,-126.45 28.28,-14.24 64.84,-19.69 96.2,-17.58 16.76,1.13 31.8,4.57 47.76,9.61 7.41,2.34 33.29,14.11 37.74,19.38 1.4,0.22 0.45,-0.81 1.1,0.53 3.63,1.41 18.38,12.43 20.07,15.18 9.58,7.62 23.32,23.68 30.7,34.47 4.68,6.85 8.61,13.26 12.47,20.29 4.15,7.57 6.66,15.48 10.27,22.35 -2.69,-22.35 -32.75,-59.74 -49.24,-75.33 -76.16,-71.99 -201.62,-62.52 -265.37,11.87 -47.82,55.8 -64.79,117.84 -43.44,189.74 17.41,58.68 65.72,107.26 123.04,127.81z"/>
   <path class="fil3" d="M128.56 259.85c2.66,-1.76 4.39,-1.87 7.54,-1.9l0.63 3.07 8.79 1.71c-3.93,0.89 -9,0.6 -11.85,3.57l10.78 2.37c-2.72,2.35 -2.91,1.15 -6.37,2.55 4.1,2.04 8.06,1.04 12.04,3.15l-4.57 1.26c3.41,2.07 27.71,0.84 33.65,0.83 4.56,0 11.2,1.06 14.98,-1.49 3.67,-2.47 5.9,-5.44 10.31,-6.78l-6.52 7.93c4.8,0.66 6.83,-1.91 10.65,-4.3 4.4,-2.76 8.91,-1.96 8.52,-6.71 -2.05,-2.12 -2.71,-1.18 -5.66,-2.33 -4.29,-1.67 -0.8,-0.47 -5.43,0.12 1.1,-2.73 3.72,-2.32 3.77,-5.55 -8.7,0.96 -14.7,11.23 -33.69,9.58 8.71,-2.69 20.79,-3.75 28.44,-9.8 -16,4.8 -22.32,5.55 -39.08,-0.18 -27.43,-9.38 -26.77,-13.83 -30.97,-15.89 -6.64,6.61 -1.06,8.35 -1.04,8.37 -3.14,1.37 -3.56,1.07 -5.12,4.1 4.32,-0.78 6.53,-1.39 11.07,-0.49 -3.99,2.1 -11.95,0.33 -14.32,7.65l3.45 -0.84z"/>
   <path class="fil11" d="M230.66 100.29l-2.83 0.82c-4.64,7.04 -5.72,7.57 -9.21,15.9 -5.75,13.75 -19.65,10.79 -26.62,10.56 -5.39,-0.18 -6.88,0.89 -11.55,1.77 -5.16,0.98 -21.87,-9.49 -36.44,9.07 -6.39,8.14 -2.46,8.04 -12.58,12.99 -12.76,6.24 -16.42,17.74 -27.12,23.65l-3.19 6.53 -0.48 8.73c3.98,-1.48 -0.17,-1.7 4.84,-2.56 -1.26,-2.88 -1.79,-1.5 -0.52,-5.21 0.79,-2.33 1.22,-3.5 3.27,-4.36 1.66,-2.71 4.41,-4.32 7.54,-5.55 6.62,-2.63 2.69,-1.05 6.6,-6.34 2.75,-3.71 10.54,-9.65 15.15,-11 -2.05,8.96 -5.75,3.84 -9.65,11.88 2.52,-0.12 7,-1.68 9.18,-3.72l1.25 -2.34c0.31,-1.55 -0.35,-2.38 1.48,-6.16 2.09,-4.33 7.01,-12.7 11.18,-14.45 3.41,-3.94 5.6,-4.99 10.33,-5.62 -5.08,2.43 -2.54,1.73 -6.1,4.43 -0.26,1.71 -0.57,0.59 1.33,1.77l9.48 -3.85c-0.97,2.29 -1.86,2.98 -1.8,5.8 3.62,0.34 3.31,-0.35 6.29,-0.63 2.85,-0.28 4.62,0.61 7.21,0.89 1.27,-3.01 0.59,-2.14 2.9,-3.46 2.05,-1.17 -0.16,1.04 1.79,-0.96l-5.71 -3.08c-2.49,-1.44 -1.62,-1.92 -4.35,-1.86l22.89 0.17c0.91,2.59 -0.68,0.18 0.75,2.42 7.02,0.13 11.52,-2.61 14.5,-3.65 3.02,-1.06 0.33,0.05 3.71,0.5l3.71 -6.36c2.16,-4.21 2.24,-0.72 1.56,-5.82 -2.6,1.19 -2.19,1.17 -4.04,3.42 2.57,-3 3.51,-4.81 5.47,-8.81 2.56,-5.22 7.75,-12.38 13.28,-15.02 3.6,-1.71 7.98,-2.1 10.59,-3.92l-6.03 -0.31c-2.9,2.37 -5.1,0.59 -8.06,3.74z"/>
   <path class="fil12" d="M204.22 176.08c-3.11,-0.9 -3.23,-0.77 -5,-3.24 3.26,-0.13 3.79,0.13 6.04,2.51l1.37 0.18c-2.27,-8.3 -10.33,-9.19 -17.44,-10.37 6.65,-0.87 6.52,-1.35 14,-1.07l-1.15 -6.04c-2.51,-1.74 -0.34,-1.56 -2.73,-0.92l-0.85 2.18c-5.47,-4.71 -15.3,-4.55 -17.27,-7.26l-5.32 3.66 5.87 0.59c-1.3,3.91 -0.21,1.7 4.01,3.45 -7.61,0.88 -12.83,0.21 -20.13,3.63l9.85 4.87c-2.39,-2.17 -10.74,-3.45 -14.4,-3.21 2.1,3.68 8.05,5.75 9.32,9.1l-6.14 -1.99c-0.71,5.15 2.08,11.46 5.39,15.15 23.57,-0.06 13.3,6.71 22.49,4.86 2.47,-0.5 5.19,-1.11 7.1,-2.64 -1.81,-2.76 -3.02,-2.11 -5.6,-3.85 3.86,-0.36 7.52,0.34 10.84,-1.93 0.01,-2.53 0.68,-0.88 -1.46,-3.13 2.75,-1.89 1.14,0.03 2.77,-2.22l-1.56 -2.31z"/>
   <path class="fil13" d="M163.59 220.83c0.02,-3.32 -0.25,-1.27 0.82,-2.15 3.05,1.31 4.78,2.16 5.92,4.83 -1.39,3.02 -0.09,0.87 -2.21,2.09l-2.52 2.76c3.05,-0.37 4.63,-2.38 6.54,-4.47 1.22,3.11 -1,0.92 -0.09,3.15l1.22 -1.45 2.29 -3.86 1.08 1.47c3.83,-3.57 6.8,-6.18 8.12,-12.18 1.96,-8.9 -3,-10.52 -10.4,-10.34 -2.23,2.21 -1.82,1.78 -4.87,1.46 0.84,-1.99 0.8,-1.6 1.87,-1.59 0,0 -2.1,0.2 -2.47,-0.75 -0.13,-0.35 -0.41,-0.4 -0.69,-0.76l3.42 -1.49 -2.9 -1.16c2.37,-1.02 4.77,-0.9 5.88,-2.19 -3.31,-0.92 -3.02,-1.14 -5,-3.9 -5.78,-0.92 -15.63,1.29 -20.82,4.03 -5.67,3 -9.09,10.43 -9.58,16.98l3.78 -1.58 -1.66 2.87 4.95 -1.57c-0.95,2.68 -1.32,1.79 -0.69,3.4l4.96 -1.94c0.55,1.3 -1.16,0.88 -0.11,3.09l4.45 -2.19c-1.22,2.6 -1.56,2.01 -0.81,3.87l5.08 -2.8 -1.59 5.96 4.5 -3.43c-0.76,3.28 -1.4,4.02 -1.11,7.78 1.85,-1.39 2.21,-1.91 2.64,-3.94z"/>
   <path class="fil14" d="M311.85 336.89c-10.51,11.6 -34.34,25.39 -48.89,31.61 -20.3,8.67 -44.08,13.81 -66.16,13.88 -43.56,0.13 -84.18,-15.86 -116.79,-44.22 -2.78,-3.69 -3.49,-3.5 -8.12,-2.9 1.87,3.31 19.47,16.79 24.13,19.88 30.15,20.01 63.72,30.6 99.98,30.81 26.49,0.16 47.28,-5.42 71.44,-15.42 12.96,-5.36 45.4,-25.24 51.86,-35.36 -4.4,-0.63 -3.99,-0.71 -7.45,1.72z"/>
   <path class="fil15" d="M83.93 336.74c-2.25,0.22 -3.82,-0.4 -3.92,1.42 32.61,28.36 73.23,44.35 116.79,44.22 22.08,-0.07 45.86,-5.21 66.16,-13.88 14.55,-6.22 38.38,-20.01 48.89,-31.61l-3.46 -0.44c-18.39,10.24 -16.63,14.87 -48.36,29.06 -17.29,7.73 -45.15,13.22 -64.03,13.25 -21.84,0.03 -44.04,-4.97 -64.21,-13.12 -11.36,-4.6 -40.29,-20.09 -47.86,-28.9z"/>
   <path class="fil15" d="M319.79 73.59c2.73,5.1 35.67,33.32 46.89,86.78 4.59,21.88 5.09,39.02 2.69,61.28 -1.54,14.23 -8,38.98 -15.05,51.26l-72.73 0.1 -1.97 0.77c13.43,0.22 26.92,0.44 40.38,0.21l31.23 -0.13c4.09,-0.07 4.88,-1.03 7.91,-1.05 1.33,-6.28 6.46,-17.83 8.71,-24.89 13.87,-43.66 6.62,-97.48 -15.97,-137.39 -5.54,-9.79 -20.59,-32.72 -29.25,-38.24 -2.09,2.11 -0.78,0.94 -2.84,1.3z"/>
   <path class="fil16" d="M63.22 159.2c3.22,-0.44 7.86,0.32 10.72,1.96 0.75,2.82 0,4.85 -1.28,7.79l-11.74 -2.86 2.3 -6.89zm-18.22 -3.7c2.3,-0.44 6.55,-0.19 8.67,1.3 2.6,1.82 0.78,4.65 -0.01,7.73l-10.76 -2.29 2.1 -6.74zm-10.7 13.41l43.83 9.88c0.96,-4.03 1.99,-7.72 2.91,-11.4 1.32,-5.28 2.97,-6.64 -0.38,-11.23 -2.42,-3.34 -5.43,-3.18 -9.48,-4.31 -5.5,-1.53 -6.39,-2.72 -11.14,0.39 -4.01,-3.7 -2.34,-3.05 -8.62,-4.62 -11.96,-3 -12.77,2.22 -14.9,9.8 -1.04,3.67 -2.27,7.89 -2.22,11.49z"/>
   <path class="fil17" d="M238.31 130.45c2.62,-2.92 6.75,-3.68 9.94,-1.52 -2.95,0.86 -7.03,1.08 -9.94,1.52zm15.17 -3.38c5.16,-0.23 13.83,2.8 12.43,9.27 -5.91,1.28 -5.98,-4.36 -12.04,-6.41 4.48,0.66 5.76,3.05 9.06,4.15 -5.33,-6.1 -4.86,-3.52 -9.45,-7.01zm-21.32 9.83l-2.59 2.13c-2.73,1.2 -0.54,-0.54 -2.73,2.4 -0.9,1.2 -1.05,1.64 -1.66,2.64l3.24 2.19c3.94,-2.05 2.21,-1.71 4.54,-4.55 2.19,-2.65 2.98,-2.08 5.48,-3.6 1.7,4.08 4.23,7.62 8.98,8.63l1.81 -1.71 -4.44 -3.87 -0.11 -2.82c-0.73,-3.57 -1.65,-2.06 -1.96,-4.33 10.02,-2.8 10.15,2.85 15.71,5.16 -0.64,-3.16 -1.41,-2.46 -3.05,-5.31 4.45,1.11 5.41,3.75 3.55,7.52 7,-1.23 2.67,2.5 6.41,-1.92 -0.15,2.75 0.16,2.92 -1.92,3.46l1.64 0.78 5.04 -14.57c0.51,-6.75 -0.68,-6.2 -1.65,-12.08 0.06,-3.25 -2.75,-8.23 -5.61,-9.73 -1.12,1.53 0.94,1.62 -3.14,0.37 -5.19,-1.6 0.15,-3.02 -4.97,-0.86 -0.14,0.06 -0.36,0.17 -0.51,0.24 -0.17,0.07 -0.38,0.18 -0.56,0.25 -0.22,0.1 -0.93,0.41 -1.17,0.52 -18.43,7.92 -13.88,9.03 -15.13,17.84 -0.22,1.59 -1.27,4.45 -1.35,4.99 -0.67,4.77 0.94,-1.26 1.74,4.84 -5.29,3.49 -3.92,2.95 -5.59,1.39z"/>
   <path class="fil18" d="M335.15 124.87c1.47,1.93 2.9,4.36 2.89,6.89 -1.77,3.24 -6.57,5.19 -10.28,4.76l-3.07 -6.34 10.46 -5.31zm-38.1 11.24l3.88 6.08c5.57,-1.5 11.3,-6.92 16.81,-7.77l-12.59 15.59 3.6 7.93 13.61 -16.41c4.01,1.81 6.09,5.03 10.8,2.9 1.22,-0.56 10.18,-5.63 10.63,-6.17 5.89,-7.14 -2.76,-17.17 -5.23,-24.12 -4.77,0.34 -28.27,13.96 -36.37,18.31 -0.52,0.28 -2.14,1.17 -2.55,1.45l-2.59 2.21z"/>
   <path class="fil19" d="M59.24 120.91c1.43,-11.92 8.92,-4.47 14.61,-1.12 3.04,1.8 14.1,8.34 15.69,10.74l-3.97 6c-2.76,-0.43 -23.88,-13.25 -26.33,-15.62zm4.69 -15.03c-8.07,1.63 -7.07,3.72 -11.22,10.06 -3.88,5.91 -0.98,10.84 4.59,13.96 6.07,3.39 22.11,15.52 28.09,14.81 6.42,-0.76 7.44,-5.17 10.5,-10.47 3.61,-6.26 0.69,-10.25 -4.68,-13.5 -5.17,-3.13 -22.28,-15.86 -27.28,-14.86z"/>
   <path class="fil20" d="M233.71 197.17l-2.31 -4.08c3.62,-1.43 1.26,-2.14 5,-2.37 4.34,-0.43 5.44,-1.88 12.04,-2.26 -2.78,-2.39 -0.95,-1.37 -4.51,-2.83 -5.58,-2.3 -1.08,0.29 -2.99,-3.34l-6.51 0.82c-5.16,-5.24 -6.79,-6.54 -14.54,-8.08l4.97 -1.17c-3,-3.27 -5.94,-2.71 -9.9,-2.68l0.88 -8.28c-4.62,2.98 -6.89,11.54 -7.05,16.85l7.07 0.66c-4.87,1.29 -5.68,1.83 -9.66,5.13 0.48,4.15 2.23,6.26 4.32,9.45 -1.34,0.18 -2.42,0.1 -3.31,0.22l-2.18 0.45c-0.18,0.04 -0.47,0.1 -0.68,0.2 0.53,5.74 0.98,9.52 7.66,9.8 5,0.21 8.46,-0.9 11.73,-4.52l-10.94 -1.43c6.83,-0.36 14.65,0.2 20.91,-2.54z"/>
   <path class="fil21" d="M179.19 323.18c-9.95,0.6 -8.44,-2.97 -8.5,-11.21 -0.02,-3.02 -0.51,-6.53 2.41,-7.69 2.47,-0.99 6.24,-0.76 8.23,0.79 1.55,2.41 0.69,7.09 0.71,10.19 0.02,5.9 0.47,3.83 -2.85,7.92zm-16.07 -23.74c-4.31,0.13 -2.81,6.69 -2.77,10.96 0.08,11.83 -2.03,14.47 6.42,21.23 2.87,2.29 8.72,1.44 12.43,1.17 1.76,-1.61 -1.87,-1.55 3.17,-1.48 -0.05,0.08 -2.08,0.55 -0.13,-2.74 9.85,-0.06 2.84,4.7 9.05,3.12l0.38 6.08c-0.67,-3.87 -1.67,-30.41 0.57,-35.4 0.11,-0.25 0.26,-0.54 0.45,-0.78 0.34,-1.48 0.2,-0.27 -0.95,-0.8 -1.99,1.65 -3.41,-4.47 -10.09,-4.32 -4.8,0.11 -10.9,-0.72 -14.76,1.57 0.26,2.76 0.85,0.12 0.37,1.89 -3.89,0.3 -3.04,1.74 -3.8,0.56 -0.15,-0.23 -0.51,0.09 -0.77,0.12 0.42,-1.3 -0.11,-1.02 0.43,-1.18z"/>
   <path class="fil22" d="M270.1 129.13l0.71 -5.44c19.37,17.92 30.42,47.98 30,74.71 -0.22,14.3 -3.28,29.96 -9.22,42.9 -5.44,11.85 -7.18,14.28 -14.61,23.71 -1.52,1.93 -5.51,5.98 -5.6,7.5l-3.74 6.32 3.57 0.37 1.34 -2.41c1.22,-2.63 2.64,-3.65 4.79,-5.26 19.82,-21.43 29.41,-52.53 27.61,-81.61 -0.9,-14.47 -4.85,-30.38 -11.67,-43.17 -4.52,-8.49 -16.17,-25.76 -24.83,-29.7 0.97,5.88 2.16,5.33 1.65,12.08z"/>
   <path class="fil23" d="M308.86 90.37c3.1,-1.64 5.79,1.97 6.48,4.85 -1.21,1.96 -20.1,19.79 -22.51,20.33 -2,-1.61 -3.61,-2.72 -4.67,-5.13l20.7 -20.05zm-4.6 -6.01c1.17,1.23 1.86,-0.53 -1.59,3.04 -6.36,6.58 -13.42,13.4 -20.82,19.26l-0.77 7.14c2.75,5.46 11.17,13.88 17.56,8.85 4.91,-3.87 9.75,-9.67 14.83,-13.98 5.09,-4.3 13.09,-10.47 8.88,-18.26 -0.09,-0.17 -6.55,-6.8 -7.09,-7.31 -3.01,-2.84 -8.64,-3.21 -11,1.26z"/>
   <path class="fil23" d="M139.28 172.61l7 -7.19c-0.3,4.19 -2.7,6.85 -7,7.19zm17.24 -31.53l-1.24 1.4c-2.06,-0.33 -3.34,-0.18 -4.32,-1.98 -4.17,1.75 -9.09,10.12 -11.18,14.45 -1.83,3.78 -1.17,4.61 -1.48,6.16l-1.25 2.34c-2.18,2.04 -6.66,3.6 -9.18,3.72 3.9,-8.04 7.6,-2.92 9.65,-11.88 -4.61,1.35 -12.4,7.29 -15.15,11 -3.91,5.29 0.02,3.71 -6.6,6.34 -3.13,1.23 -5.88,2.84 -7.54,5.55l1.13 -0.32c3.19,-5.6 5.85,-2.27 9.94,-1.58l-0.03 -2.26c5.97,-2.18 11.65,-4.45 17.97,-4.29l-5.93 5.78c7.04,0.79 18.42,-5.68 22.09,-11.38 -5.31,-3.94 -7.28,-1.16 -12.46,-2.6 -0.62,-4.04 1.82,-9.73 5.36,-11.7l-1.69 4.5c4.3,-0.59 7.94,-5.65 12.6,-6.93 -2.01,2.17 -4.55,4.74 -5.14,7.64 7.15,0.02 14.15,-5.07 21.38,-5.26l-6.82 6.01c6.57,0.26 14.6,-4.42 14.9,-11.8 -1.89,-2.12 -0.88,2.01 -1.73,-2.73 3.6,-1.17 0.12,-1.86 4.05,0.04l-1.45 -2.1 -0.01 -0.33c-1.95,2 0.26,-0.21 -1.79,0.96 -2.31,1.32 -1.63,0.45 -2.9,3.46 -2.59,-0.28 -4.36,-1.17 -7.21,-0.89 -2.98,0.28 -2.67,0.97 -6.29,0.63 -0.06,-2.82 0.83,-3.51 1.8,-5.8l-9.48 3.85z"/>
   <path class="fil24" d="M98.85 158.67c-6.38,16.88 -10.84,37.7 -6.91,55.76 3.05,-1.47 -1.86,-20.92 2.76,-32.47 2.22,-5.55 -1.73,-1.2 1.41,-8.02 3.1,-6.71 9.52,-30.21 17.85,-33.52 2.55,-6.85 12.2,-15.32 17.81,-19.78 6.94,-5.52 3.41,-4.19 11.55,-8.28 4.69,-2.34 8.88,-5.08 14.01,-6.99 11.02,-4.09 21.03,-6.56 33.02,-7.36 4.16,-0.28 16.09,-0.18 19.86,0.63 3.62,0.77 3.2,1.46 8.12,2.04 3.99,0.48 4.99,1.06 9.5,0.43l2.83 -0.82c-2.5,-3.85 -3.07,-0.26 -6.62,-3.84 -8.18,0.48 -18.74,-4.75 -43.48,-1.37 -34.96,4.77 -69.26,30.27 -81.71,63.59z"/>
   <path class="fil23" d="M134.4 107.8c-0.51,0.71 -10.27,8.5 -11.92,9.88 -4.38,3.67 -7.45,7.64 -11.31,11.9 -4.51,4.97 -16.17,22.59 -16.37,29.18 0.98,1.89 0.53,0.87 2,-0.72l2.05 0.63c12.45,-33.32 46.75,-58.82 81.71,-63.59 24.74,-3.38 35.3,1.85 43.48,1.37 2.35,-0.46 1.13,-0.34 3.37,-0.99 3.02,-0.88 0.77,0.75 2.57,-1.11l0.42 -0.04c-8.89,-1.24 -15.51,-3.91 -25.57,-4.59 -8.61,-0.58 -19.53,-0.01 -27.99,1.49 -17.16,3.05 -27.7,8.69 -42.44,16.59z"/>
   <path class="fil19" d="M235.23 56.8c1.62,4.36 10.2,12.73 9.96,16.52 -0.72,12.07 -14.46,5.25 -8.29,-1.33 -0.75,-2.98 0.8,-1.72 -3.43,-3.16 -1.25,-0.43 -2.76,-0.63 -3.98,-0.83 -1.55,3.32 -3.96,8.58 -1.86,11.72 2.34,4.68 1.29,3.93 6.26,5.61 3.03,1.02 6.97,3.15 9.98,2.76 6.85,-0.88 8.11,-9.03 10.21,-15.42 -0.75,-5.64 -8.28,-11.47 -10.03,-17.1l-1.34 -1.19 2.15 -7.13c2.9,-0.33 5.48,0.51 7.94,2.59l-1.83 4.56c0.93,2.06 0.09,0.95 1.48,2.86l5.88 1.37 1.75 -5.04c1.08,-6.23 -0.57,-9.89 -6.73,-12 -3.87,2.88 -3.55,0.03 -7.08,-0.44 -1.3,-0.17 -4.62,1.03 -5.3,3.29 -1.54,5.17 -2.02,1.16 -2.63,6.02 -0.43,3.41 -1.76,2.62 -3.11,6.34z"/>
   <path class="fil13" d="M310.64 164.26c-0.13,3.55 2.75,16.98 4.04,20.49l6.32 -1.37 -1.72 -12.1 11.95 -2.8 2.24 10.65 6.85 -1.03 -1.76 -10.93c3.13,-1.67 7.62,-2.39 11.16,-2.59l2.17 12.38 6.93 -1.47 -3.99 -20.71c-4.78,-0.03 -38.73,7.59 -44.19,9.48z"/>
   <path class="fil25" d="M151.8 59.32l0.91 2.94 -5.12 -4.58 -0.83 1.78c-3.01,-4.2 -1,-2.08 -5.19,-2.68l-0.61 3.01c-3.59,-2.37 -0.92,-0.98 -2.41,-0.91 -3.84,0.18 -1.2,-0.63 -1.19,-0.65l-0.61 3.97c-1.15,-0.28 0.17,-0.45 0.23,-0.39 0.94,0.98 0.83,-3.31 0.69,2.4l-2.75 1.34 9.93 25.06 6.79 -2.82 -1.14 -4.59c-1.61,-2.75 -5.92,-14.6 -6.09,-17.9l16.4 18.72c3.05,0.01 6.99,-0.36 7.33,-3.73 -3.92,-5.02 -5.91,-20.44 -9.28,-23.99l-1.05 1.82c-4.3,-11.82 -3.36,-5.57 -4.42,-7.93 -1.12,9.33 2.57,7.55 -1.59,9.13z"/>
   <path class="fil23" d="M207.46 348.91c-0.19,2.13 -0.74,0.92 0.72,2.01l4.49 -14.85 0.64 4.91c-1.01,-2.7 0.85,-1.81 1.01,-2.08 0.05,-0.07 0.2,-0.24 0.24,-0.31l0.83 -2.99c2.35,-5.24 3.25,-0.35 3.77,-7.79 2.37,2.43 0.55,1.29 3.16,-0.75l1.03 1.99c0.96,-1.88 3.67,-12.26 4.64,-15.47 2.57,-8.48 2.65,-10.38 3.21,-19.17l-1.61 1.83 -27.64 0.29c-0.38,3.98 -1.34,5.47 1.92,6.08l-2.26 -0.14 -0.04 -7.98c-1.86,1.83 -1.59,1.15 -1.11,9.16l18.78 0.42c-1.44,10.28 -12.03,36.59 -11.78,44.84z"/>
   <path class="fil18" d="M179.2 332.8l2.89 0.68c-0.21,6.95 1.45,9.21 -2.91,14.24 -11.56,0.21 -6.74,-2.59 -9.29,-7.79l-9.49 0.42c-0.21,4.59 -1.1,8.51 2.13,11.53 2.97,2.78 3.81,4.76 7.81,5.05 2.42,0.18 10.59,0.21 12.88,-0.08 2.95,-0.37 5.8,-2.92 7.67,-5.17 3.18,-3.82 1.95,-42.46 1.8,-50.08 -0.19,0.24 -0.34,0.53 -0.45,0.78 -2.24,4.99 -1.24,31.53 -0.57,35.4l-0.38 -6.08c-6.21,1.58 0.8,-3.18 -9.05,-3.12 -1.95,3.29 0.08,2.82 0.13,2.74 -5.04,-0.07 -1.41,-0.13 -3.17,1.48z"/>
   <path class="fil26" d="M89.96 86.12l0.28 2.81c1.26,1.63 -1.92,0.66 1.94,1.82 -4.34,1.12 -5.07,-0.25 -8.43,-1.78 -3.46,-1.58 -2.77,1.35 -7.89,-0.99l2 1.47c-0.07,1.14 1.57,-0.07 -1.08,1.48 4.27,4.25 16.06,5.25 18.76,10.34 3.24,6.11 5.1,13.76 8.76,20.04l6.03 -5.16 -5.68 -12.75 13.69 5.38 6.29 -5.47 -3.93 -2.52c-4.4,-1.07 -9.72,-3.95 -14.19,-5.72 -9.62,-3.81 -3.84,-4.98 -9.19,-10.35 -3.53,2.57 -3.91,0.2 -7.36,1.4z"/>
   <path class="fil20" d="M254.27 206.55c1.01,4.01 -0.05,1.4 -0.51,5.5 2.59,-1.15 1.41,-1.47 3.03,-0.93l-2.36 4.58 3.89 -1.47 -2.11 4.17c2.84,0.96 0.87,0.09 4.48,-0.02l-1.68 3.28 5.02 -1.03 -1.69 3.27c2.18,0.09 2.67,-0.36 3.54,-0.37 2.92,-0.03 0.5,0.22 2.16,0.89 0.1,0.04 0.3,0.16 0.42,0.19 0.13,0.04 0.37,0.1 0.51,0.12 2.47,0.36 2.71,-0.86 6.35,-0.37 0.81,-2.35 -0.14,-0.73 1.49,-1.96l7.19 -3.07c-1.44,-13.04 -17.57,-27.8 -28.72,-15.86l2.9 0.73 -3.91 2.35z"/>
   <path class="fil13" d="M176.68 135.79c2.88,0.2 2.39,-0.25 5.45,1.28 5.16,2.57 2.61,0.95 7.44,1.15 2.76,0.11 4.66,1.22 8.04,1.16 2.69,-0.04 4.97,-0.67 7.63,-0.71 -4.02,2.8 -13.85,6.03 -18.79,6.79 -1.56,-3.68 -0.47,-4.02 -4.05,-6.26l1.45 2.1c-3.93,-1.9 -0.45,-1.21 -4.05,-0.04 0.85,4.74 -0.16,0.61 1.73,2.73 0.97,-2.52 -0.6,-2.04 1.42,-1.42 1.16,3.76 1.03,4.48 -0.76,7.82 5.09,-1.04 8.14,2.09 11.87,3.55 -0.59,-3.03 -5.53,-4.21 -7.06,-7.26 6.64,-0.14 -1.83,2.19 5,3.19 1.77,-2.88 7.82,4.46 11.19,5.23 2.92,-1.24 3.35,-2.24 2.67,-5.1 -2.87,-1.26 -2.79,-0.17 -5.41,-1.77l12.17 -4.1c-1.97,5.83 -4.81,13.56 -3.77,19.84l10.72 -27.26c1.53,-1.3 0.31,-0.03 -0.32,-3.93 -0.44,-2.71 -0.18,-3.85 0.32,-6.46l-1.68 0.69 -3.71 6.36c-3.38,-0.45 -0.69,-1.56 -3.71,-0.5 -2.98,1.04 -7.48,3.78 -14.5,3.65 -1.43,-2.24 0.16,0.17 -0.75,-2.42l-22.89 -0.17c2.73,-0.06 1.86,0.42 4.35,1.86z"/>
   <path class="fil18" d="M240.58 311.31l6.31 -1.94 -0.18 46.83 1.29 0.56c1.96,-4.47 1.74,-21.12 1.53,-26.81 3.85,-0.69 1.95,-0.05 5.15,-2.36 0.04,-0.02 1.64,-1.02 1.82,-1.12l0.09 15.01c0.62,-4.69 0.51,-1.51 1.73,-3.08l-0.5 -44.09 -1.08 1.88c-4.9,-0.36 -5.44,-0.87 -8.69,2.41 -2.39,2.4 -3.94,2.64 -6.9,4.18l-0.57 8.53z"/>
   <path class="fil27" d="M274.86 58.13l-0.42 2.22c2.69,0.2 3.98,1.38 6.08,3.06 -0.44,2.08 -1.47,3.64 -3.08,4.78l-17.87 27.04 1.33 2.71 5.3 2.42 21.46 -32.09 7.26 3.83 3.8 -5.65 -18.09 -11.4c-2.04,2.09 -1.56,0.65 -2.93,1.8 -2.33,1.95 -1.06,3.65 -2.84,1.28z"/>
   <path class="fil26" d="M175.96 74.62l1.36 2.71c5.58,2.37 1.55,2.91 9.86,2.51 10.51,-0.5 13.9,-0.2 13.64,-11.83 -0.09,-4.19 -0.14,-8.38 -0.19,-12.58 -2.31,-2.11 -8.87,-0.96 -12.47,-0.85l-0.1 6.32c2.73,1.83 1.75,-0.11 4.73,1.47l-0.22 9.08c-2.79,1.22 -5.61,1.45 -7.98,0.09 -1.55,-3.3 -1.82,-26.57 -1.21,-31.11l-1.27 1.1c1.31,11.66 -2.8,7.19 0.81,10.42 -6.68,1.07 -2.47,-0.83 -5.42,-0.83 -0.38,3.55 -0.1,8.43 -0.01,12.08 0.08,2.92 -0.32,4.04 -0.41,6.45 -0.15,3.82 1.77,4.38 -1.12,4.97z"/>
   <path class="fil27" d="M138.5 309.2c1.42,2.16 0.97,15.1 1.08,18 0.25,6.21 0.13,12.68 0.51,18.78 0.4,-9.18 -0.89,-4.63 1.22,-13.26 0.02,-0.05 0.06,-0.23 0.07,-0.27 0.56,-4.31 -1.41,2.88 -0.35,-2.71 6.77,-3.25 1.48,-4.71 8.57,-0.94l0 27.89 0.17 -62.54c-11.45,-0.33 -10.18,1.41 -19,7.05l0.11 10.11 7.62 -2.11z"/>
   <path class="fil28" d="M158.76 246.1c-4.51,0.14 -18.76,-7.8 -19.92,-11.09 3.09,6.26 13.17,9.31 17.16,12.87 -8.46,-0.23 -13.42,-5.26 -19.5,-9.06 2.44,1.66 3.39,3.65 5.73,5.3 1.84,1.31 6.09,3.5 8.23,4.58 14.88,7.46 35.42,13.17 51.6,6.92 4.98,-1.92 3.95,-2.6 4.88,-7.49 -12.2,4.01 -26.17,4.09 -38.09,-0.94 -3.71,-1.57 -27.56,-13.48 -28.86,-15.33 0.15,0.05 6.46,5.87 8.7,7.39 3.38,2.3 7.2,4.9 10.07,6.85z"/>
   <path class="fil26" d="M91.19 53.59l1.38 1.94c1.57,-0.3 18.8,-11.77 22.76,-13.8 8.21,-4.22 17.41,-8.52 26.39,-11.24 20.96,-6.34 43.51,-10.39 65.67,-8.61l-0.73 -2.06c2.34,-0.62 -0.58,-1.29 3.08,-0.41 -1.09,0.7 -0.28,0.81 -0.94,-0.82 -22.13,-1.62 -46.59,1.32 -67.53,8.24 -9.21,3.04 -18.46,6.93 -26.98,11.4 -4.02,2.11 -22.03,12.39 -23.1,15.36z"/>
   <path class="fil13" d="M226.11 119.25l3.64 1 2.71 1.62 0.5 4.8 -2.5 1.07 -2.1 2.14 -0.25 0.63 -0.71 2.64c2.79,0.84 1.52,0.41 0.98,1.06 -1.36,4.12 -3.78,2.76 -6.64,4.65l-1.61 9.13c-0.84,2.9 -1.45,5.94 1.95,7.63 -0.34,-3.36 -1.44,-3.67 -1.35,-7.89l2.98 5.76 1.47 -9.42c0.61,-1 0.76,-1.44 1.66,-2.64 2.19,-2.94 0,-1.2 2.73,-2.4 0.94,-3.6 1.24,-4.07 4.28,-5.96l-1.69 3.83c1.67,1.56 0.3,2.1 5.59,-1.39 -0.8,-6.1 -2.41,-0.07 -1.74,-4.84 0.08,-0.54 1.13,-3.4 1.35,-4.99 1.25,-8.81 -3.3,-9.92 15.13,-17.84 0.24,-0.11 0.95,-0.42 1.17,-0.52 0.18,-0.07 0.39,-0.18 0.56,-0.25 0.15,-0.07 0.37,-0.18 0.51,-0.24 5.12,-2.16 -0.22,-0.74 4.97,0.86 4.08,1.25 2.02,1.16 3.14,-0.37l-5.29 -5.64 -2.4 -1.03c-1.35,1.04 0.27,0.5 -1.8,0.31 -0.06,0 -1.49,-0.37 -1.77,-0.43 -2.99,-0.68 -1.62,-0.63 -5.25,-0.51 -0.52,2.67 1.21,-2.35 1.04,1.88l-8.02 1.6c1.36,1.75 0.87,2.99 1.21,5.3l-3.64 1.14c2.68,1.15 1.32,-0.41 2.08,1.75 -1.6,0.28 -4.17,0.5 -5.53,1.71 -3.15,2.81 1.66,-1.18 -1.27,3.44 -1.1,-0.44 -3.63,-0.34 -4.89,-0.09 -1.9,0.37 -1.07,2.21 -1.08,2.01 -0.01,-0.11 -0.05,0.34 -0.12,0.49z"/>
   <path class="fil11" d="M175.96 74.62c2.89,-0.59 0.97,-1.15 1.12,-4.97 0.09,-2.41 0.49,-3.53 0.41,-6.45 -0.09,-3.65 -0.37,-8.53 0.01,-12.08 2.95,0 -1.26,1.9 5.42,0.83 -3.61,-3.23 0.5,1.24 -0.81,-10.42l1.27 -1.1 1.13 0c0.36,-1.68 5.17,-0.98 7.05,-0.72l0.08 6.24 8.28 -0.07c-0.05,-12.55 0.8,-14.69 -13.53,-14.14 -5.32,0.21 -11.13,0.78 -11.84,7.39 -0.23,2.19 1.17,34.67 1.41,35.49z"/>
   <path class="fil15" d="M137.25 385.6c4.55,2.46 10.59,3.88 15.64,5.51 14.35,4.62 45.27,4.73 59.1,4.08 17.07,-0.8 43.75,-8.34 59.21,-15.19 3.06,-1.36 5.93,-2.34 6.4,-4l1.68 -1.78 -1.53 -0.48c-5.04,2.11 -9.6,4.6 -14.78,6.65 -36.39,14.41 -71.23,16.49 -109.28,8.06 -6.87,-1.52 -14.95,-5.33 -16.44,-2.85z"/>
   <path class="fil22" d="M18.13 223.84c1.47,9.45 3.11,16.83 5.69,25.96 2.02,7.16 6.76,16.98 7.95,23.22l-4.19 -0.4c0.87,2.71 5.21,1.3 9.22,1.57 13.37,0.89 68.91,1.09 75.85,-0.23l-2.42 -0.96 -73.43 -0.07c-3.98,-6.24 -7.91,-18.65 -10.04,-26.1 -1.46,-5.1 -5.07,-27.3 -6.22,-29.14l-0.35 3.15 -0.81 -2.42c-0.03,0.96 -0.04,2.33 -0.24,3.2 -0.63,2.65 0.09,0.65 -1.01,2.22z"/>
   <path class="fil23" d="M149.6 356.69l0 -27.89c-7.09,-3.77 -1.8,-2.31 -8.57,0.94 -1.06,5.59 0.91,-1.6 0.35,2.71 -0.01,0.04 -0.05,0.22 -0.07,0.27 -2.11,8.63 -0.82,4.08 -1.22,13.26 -0.38,-6.1 -0.26,-12.57 -0.51,-18.78 -0.11,-2.9 0.34,-15.84 -1.08,-18l0.08 47.72 11.02 -0.23z"/>
   <path class="fil24" d="M227.63 79.72c-7.06,1.93 2.47,11.45 2.48,11.45 1.46,2.32 -0.7,-1.28 0.29,3.14l-0.42 0.04 6.01 1.8c2.43,-0.99 5.99,-0.32 8.79,-0.3 2.8,0.02 4.63,-1.05 8.06,-1.41 0.72,-3.19 1.07,-1.65 1.71,-4.9l1.93 -11.16c0.25,-2.33 -0.08,-2.44 -0.05,-5.32l-2.35 -0.39c-2.1,6.39 -3.36,14.54 -10.21,15.42 -3.01,0.39 -6.95,-1.74 -9.98,-2.76 -4.97,-1.68 -3.92,-0.93 -6.26,-5.61z"/>
   <path class="fil24" d="M59.24 120.91c2.45,2.37 23.57,15.19 26.33,15.62l3.97 -6c-1.59,-2.4 -12.65,-8.94 -15.69,-10.74 -5.69,-3.35 -13.18,-10.8 -14.61,1.12z"/>
   <path class="fil12" d="M94.8 158.76c-4.72,3.86 -7.26,22.46 -7.94,29.01 -1.31,12.56 -0.16,21.08 1.72,33.28 2.67,-1.61 0.4,-0.82 3.15,-1.19l-0.05 -2.21 0.26 -3.22c-3.93,-18.06 0.53,-38.88 6.91,-55.76l-2.05 -0.63c-1.47,1.59 -1.02,2.61 -2,0.72z"/>
   <path class="fil27" d="M217.89 127.01l1.68 -0.69c0.99,-4.22 2.4,-6.06 6.54,-7.07 0.07,-0.15 0.11,-0.6 0.12,-0.49 0.01,0.2 -0.82,-1.64 1.08,-2.01 1.26,-0.25 3.79,-0.35 4.89,0.09 2.93,-4.62 -1.88,-0.63 1.27,-3.44 1.36,-1.21 3.93,-1.43 5.53,-1.71 -0.76,-2.16 0.6,-0.6 -2.08,-1.75l3.64 -1.14c-0.34,-2.31 0.15,-3.55 -1.21,-5.3l8.02 -1.6c0.17,-4.23 -1.56,0.79 -1.04,-1.88 3.63,-0.12 2.26,-0.17 5.25,0.51 0.28,0.06 1.71,0.43 1.77,0.43 2.07,0.19 0.45,0.73 1.8,-0.31l-10.4 -3.79c-2.61,1.82 -6.99,2.21 -10.59,3.92 -5.53,2.64 -10.72,9.8 -13.28,15.02 -1.96,4 -2.9,5.81 -5.47,8.81 1.85,-2.25 1.44,-2.23 4.04,-3.42 0.68,5.1 0.6,1.61 -1.56,5.82z"/>
   <path class="fil20" d="M190.47 231.09c6.91,1.41 17.72,0 15.66,-9.29 -3.23,-3.08 -6.45,-2.51 -8.23,-6.33 3.8,-1.27 6.5,0.26 10.99,-0.28 -2.31,-1.93 -5.28,-4.73 -8.49,-6.01 -2.65,-1.05 -9.54,-1.68 -11.05,1.08 -2.83,5.21 5.02,-1.47 4.41,8.92 -0.28,4.83 -3.47,7.73 -3.29,11.91z"/>
   <path class="fil26" d="M112.66 71.92l16.84 27.44c3.71,-0.87 3.33,-2.46 6.65,-2.91 -0.69,-3.55 -15.29,-27.75 -18.01,-30.01l-1.09 1.65c-2.82,2.79 -1.71,-1.37 -2.05,3.79l-2.34 0.04z"/>
   <path class="fil7" d="M120.23 280.32c-0.5,-3.4 -0.26,-2.87 -3.05,-5 -1.56,1.7 0.7,-0.82 -1.09,2.27 -14.43,-0.03 -28.86,0 -43.29,-0.03 -6.45,-0.02 -39.53,-1.29 -42.33,0.84 1.96,3.94 16.98,1.79 21.53,1.78l68.23 0.14z"/>
   <path class="fil6" d="M22.71 156.08c-3.29,3.48 -5.35,25.36 -5.84,31.33 -1.16,14.15 0.3,22.85 1.26,36.43 1.1,-1.57 0.38,0.43 1.01,-2.22 0.2,-0.87 0.21,-2.24 0.24,-3.2l0.81 2.42 0.35 -3.15c1.13,-5.39 -0.2,-24.07 0.37,-32.02 0.52,-7.29 2.58,-21.69 4.98,-28.43 -1.77,-1.45 -0.98,1.24 -1.56,-1.74l-1.08 2.35 -0.54 -1.77z"/>
   <path class="fil16" d="M45.22 104.08l2.27 1.4c2.78,-2.95 9.52,-14.67 20.47,-26.31l24.61 -23.64 -1.38 -1.94c-9.13,4.53 -44.98,41.08 -45.97,50.49z"/>
   <path class="fil28" d="M288.16 110.42c1.06,2.41 2.67,3.52 4.67,5.13 2.41,-0.54 21.3,-18.37 22.51,-20.33 -0.69,-2.88 -3.38,-6.49 -6.48,-4.85l-20.7 20.05z"/>
   <path class="fil3" d="M138.17 228.25l1.32 -4.71c-5.2,-4.41 -5.9,-0.09 -20.2,-10 -5.84,-4.05 -14.83,-7.57 -17.82,-13.72l-1.63 -1.43c-1.61,1.94 3.93,9.62 4.67,10.92 1.72,2.97 2.99,2.74 5.84,5.04 6.26,5.06 2.74,2.53 9.48,5.92 4.28,2.16 0.97,2.84 12.65,7.35 1.07,0.41 0.85,0.29 1.44,0.43l4.25 0.2z"/>
   <path class="fil17" d="M128.56 259.85l0.23 1.84c1.61,-1.58 3.11,-1.08 5.19,-0.61 -2.66,4.37 -7.04,9.55 -7.58,14.83l-2.28 2.2 20.22 0.31 1.21 -2.79 4.57 -1.26c-3.98,-2.11 -7.94,-1.11 -12.04,-3.15 3.46,-1.4 3.65,-0.2 6.37,-2.55l-10.78 -2.37c2.85,-2.97 7.92,-2.68 11.85,-3.57l-8.79 -1.71 -0.63 -3.07c-3.15,0.03 -4.88,0.14 -7.54,1.9z"/>
   <path class="fil28" d="M177.32 77.33c-2.69,-0.85 -0.68,-0.79 -2.63,0.06 1.2,11.38 14.78,10.43 23.8,9.01 0.48,-0.85 1.62,-2.53 2.23,-3.36 1.79,-2.42 0.88,0.19 1.9,-3.09 1.52,-4.86 0.12,-13.06 0.14,-16.74 0.01,-3.49 0.68,-6.16 -2.13,-7.78 0.05,4.2 0.1,8.39 0.19,12.58 0.26,11.63 -3.13,11.33 -13.64,11.83 -8.31,0.4 -4.28,-0.14 -9.86,-2.51z"/>
   <path class="fil6" d="M268.77 36.48c2.07,2.89 10.26,6.01 13.92,8.01 4.69,2.55 9.28,5.87 13.62,8.8 8.89,6 15.96,13.43 23.48,20.3 2.06,-0.36 0.75,0.81 2.84,-1.3 -4.1,-8.92 -40.55,-34.47 -51.61,-37.97 -0.94,1.85 0.12,1.04 -2.25,2.16z"/>
   <path class="fil13" d="M207.46 348.91c-1.73,1.96 -2.53,5.75 -2.38,8.31l10.71 -0.61 7.56 -27.56 -1.03 -1.99c-2.61,2.04 -0.79,3.18 -3.16,0.75 -0.52,7.44 -1.42,2.55 -3.77,7.79l-0.83 2.99c-0.04,0.07 -0.19,0.24 -0.24,0.31 -0.16,0.27 -2.02,-0.62 -1.01,2.08l-0.64 -4.91 -4.49 14.85c-1.46,-1.09 -0.91,0.12 -0.72,-2.01z"/>
   <path class="fil17" d="M248 356.76l9.91 -0.36 0.41 -18c-1.22,1.57 -1.11,-1.61 -1.73,3.08l-0.09 -15.01c-0.18,0.1 -1.78,1.1 -1.82,1.12 -3.2,2.31 -1.3,1.67 -5.15,2.36 0.21,5.69 0.43,22.34 -1.53,26.81z"/>
   <path class="fil28" d="M107.23 189.05l-0.96 4.27 4.09 5.57 -1.4 0.47 2.06 1.95c-4.38,-0.23 -5.35,-1.9 -8.48,-4.32l1 1.71c4.69,4.05 11.09,10.71 17.39,12.02 0.17,-3.41 -0.36,-5.93 0.35,-9.44 0.57,-2.79 1.71,-4.83 2.12,-7.51l-0.18 0.46 -2.21 1.64 -5.13 -2.99c0.05,-1.01 -1.29,0.29 0.87,-1.58 -3.52,-0.36 -2.09,0.34 -3.51,-1.44 -3.64,-0.54 -3.16,-1.97 -6.04,-3.53l0.03 2.72z"/>
   <path class="fil9" d="M191.21 67.95c-2.03,-2.16 -1.65,0.22 -3.57,-4.38l3.63 -0.44 -0.06 4.82zm-6.7 -27.52l6.18 0.29 0.24 4.82c-5.07,-0.41 -5,-0.64 -6.16,4.48l-0.26 -9.59zm-1.13 0c-0.61,4.54 -0.34,27.81 1.21,31.11 2.37,1.36 5.19,1.13 7.98,-0.09l0.22 -9.08c-2.98,-1.58 -2,0.36 -4.73,-1.47l0.1 -6.32c1.21,-1.3 -0.46,-1.49 3.08,-1.94 3.01,-0.38 -0.11,0.93 9.66,0.69l0.7 -1.98c-3.77,1.01 -7.54,1.38 -9.62,-2.49 0.57,-1.18 -1.93,-0.1 1.61,-1.66 -2.75,0 -2.71,0.91 -1.95,-1.25l-0.08 -6.24c-1.88,-0.26 -6.69,-0.96 -7.05,0.72l-1.13 0z"/>
   <path class="fil13" d="M22.71 156.08l0.54 1.77 1.08 -2.35c0.58,2.98 -0.21,0.29 1.56,1.74 1.85,-15.19 14.08,-38.05 21.6,-51.76l-2.27 -1.4c-6.93,4.48 -22.54,43.51 -22.51,52z"/>
   <path class="fil24" d="M179.19 323.18c3.32,-4.09 2.87,-2.02 2.85,-7.92 -0.02,-3.1 0.84,-7.78 -0.71,-10.19 -1.99,-1.55 -5.76,-1.78 -8.23,-0.79 -2.92,1.16 -2.43,4.67 -2.41,7.69 0.06,8.24 -1.45,11.81 8.5,11.21z"/>
   <path class="fil11" d="M134.92 65.55l2.75 -1.34c0.14,-5.71 0.25,-1.42 -0.69,-2.4 -0.06,-0.06 -1.38,0.11 -0.23,0.39l0.61 -3.97c-0.01,0.02 -2.65,0.83 1.19,0.65 1.49,-0.07 -1.18,-1.46 2.41,0.91l0.61 -3.01c4.19,0.6 2.18,-1.52 5.19,2.68l0.83 -1.78c-0.44,-2.33 -8.5,-11.67 -10.64,-13.89 -3.33,-0.13 -5.51,0.8 -8.35,2.61l6.32 19.15z"/>
   <path class="fil24" d="M150.5 83.2c4.87,2.09 4.07,1.19 6.91,4.15 6.41,6.71 8.52,4.24 10.25,2.74 2.09,-1.79 1.59,-1.15 2.21,-3.7 0.36,-1.45 0.63,-3.78 0.41,-4.84 -0.43,-2.15 -0.93,-3.23 -2.14,-1.26 -0.34,3.37 -4.28,3.74 -7.33,3.73l-16.4 -18.72c0.17,3.3 4.48,15.15 6.09,17.9z"/>
   <path class="fil13" d="M147.83 180.41l-1.77 8.95 -6.69 -3.37 8.46 -5.58zm-9.41 8.36c7.92,0.57 5.98,4.32 17.26,1.33l3.72 -1.13c1.13,-0.51 1.09,-0.54 1.64,-0.95l-2.2 -4.5c-2.68,0.27 -0.82,0.28 -3.28,2.19l-0.19 -6.51 -4.05 1.46 -0.69 -4.48c-5.53,4.43 -11.07,6.15 -17.14,8.79 1.72,2.66 2.82,1.21 4.93,3.8z"/>
   <path class="fil13" d="M108.96 199.36c-3.29,-0.56 -3.55,-0.39 -4.47,-3.29 1.36,0.34 0.41,-0.48 2.44,0.93 2.05,1.43 1.17,1.01 2.03,2.36zm-7.84 -17.78c-4.45,4.07 -2.62,11.51 -1.28,16.81l1.63 1.43c3.67,1.58 1.23,1.05 2.07,-1.12l-1 -1.71c3.13,2.42 4.1,4.09 8.48,4.32l-2.06 -1.95 1.4 -0.47 -4.09 -5.57 -2.46 -0.97c0.98,-2.68 0.87,-2.3 3.42,-3.3l-0.03 -2.72c2.88,1.56 2.4,2.99 6.04,3.53l6.81 -0.26c2.83,2.43 -0.03,2.11 3.79,1.98l1.79 -1.7c-1.26,0.18 -8.88,-0.23 -8.82,-3.07l-4.63 -2.38 -0.12 -3.17c-4.26,2.79 -1.52,0.31 -3.3,3.33l-1.59 -2.48 4.28 -2.13 -2.15 -0.72 0.06 -1.4 -1.13 0.32c-2.05,0.86 -2.48,2.03 -3.27,4.36 -1.27,3.71 -0.74,2.33 0.52,5.21 -5.01,0.86 -0.86,1.08 -4.84,2.56l0.48 -8.73z"/>
   <path class="fil7" d="M272.89 328.8c1.93,2.26 2.64,1.55 6.28,1.49l20.83 0.08c5.48,0.02 23.21,1.58 26.64,-1.57 -1.73,-1.81 0.51,-0.32 -1.92,-1.2 -2.58,-0.93 -32.95,-0.25 -38.32,-0.21l-11.24 0.35c-0.28,0.07 -0.54,0.21 -0.77,0.29l-1.5 0.77z"/>
   <path class="fil13" d="M129.38 190.81l-4.49 7.1c6.95,1.27 5.74,0.87 11.73,3.56l8.18 -9.4c-2.52,-1.65 -4.45,-1.36 -6.38,-3.3l-5.64 -0.96 -3.4 3z"/>
   <path class="fil1" d="M236.9 71.99c-6.17,6.58 7.57,13.4 8.29,1.33 0.24,-3.79 -8.34,-12.16 -9.96,-16.52l-0.66 0.05 -1.93 0.83c0.68,2.82 -0.4,5.2 1.35,7.58 1.92,2.61 5.89,4.1 2.91,6.73z"/>
   <path class="fil11" d="M145.08 39.87l6.72 19.45c4.16,-1.58 0.47,0.2 1.59,-9.13 1.06,2.36 0.12,-3.89 4.42,7.93l1.05 -1.82c0.14,-6.1 -4.7,-12.12 -4.73,-18.48l-9.05 2.05z"/>
   <path class="fil28" d="M244.68 138.34c2.47,-0.78 2.2,-0.86 3.19,1.79l-3.08 1.03 4.44 3.87 -1.81 1.71 1.96 0.06 0.63 -2.55c6.15,0.35 2.12,0.62 6.91,-1.15 2.68,1.99 0.46,0.54 2.2,3.43l1.19 -1.89c1.6,-2.53 -0.1,-1.5 3.11,-1.72 2.08,-0.54 1.77,-0.71 1.92,-3.46 -3.74,4.42 0.59,0.69 -6.41,1.92 1.86,-3.77 0.9,-6.41 -3.55,-7.52 1.64,2.85 2.41,2.15 3.05,5.31 -5.56,-2.31 -5.69,-7.96 -15.71,-5.16 0.31,2.27 1.23,0.76 1.96,4.33z"/>
   <path class="fil6" d="M251.2 199c-4.85,2.3 -8.25,2.04 -7.71,8.82l5.89 -1.02c-1.21,8.32 -4.82,14.81 0.03,22.96 3.9,6.55 13.23,8.2 19.51,5.58 -8.07,-0.39 -15.72,0.7 -19.13,-8.25 -1.89,-4.96 -1.52,-19.03 3.22,-21.7 1.43,-4.02 2.71,-3.81 5.11,-6.91l-6.92 0.52z"/>
   <path class="fil12" d="M235.52 25.2c2.53,2.4 12.92,4.21 17.02,5.5 3.87,1.21 13.33,5.6 16.23,5.78 2.37,-1.12 1.31,-0.31 2.25,-2.16 -9.34,-4.35 -21.83,-9.75 -32.11,-11.21l-0.84 2.03 -2.55 0.06z"/>
   <path class="fil11" d="M105.72 61.79l6.94 10.13 2.34 -0.04c0.34,-5.16 -0.77,-1 2.05,-3.79l1.09 -1.65c-0.75,-2.99 -4.18,-8.49 -6.32,-11 -2.5,0.37 -5.06,2.19 -7.14,4.06l1.04 2.29z"/>
   <path class="fil7" d="M249.98 197.5l0.59 1.92 0.63 -0.42 6.92 -0.52c-2.4,3.1 -3.68,2.89 -5.11,6.91l1.26 1.16 3.91 -2.35 -2.9 -0.73c11.15,-11.94 27.28,2.82 28.72,15.86l-7.19 3.07c-1.63,1.23 -0.68,-0.39 -1.49,1.96 5.53,-0.71 4.13,-1.02 5.43,-1.52 2.57,-0.99 0.64,2.54 3.41,-1.32l0.3 2.37c3.19,-1.88 0.68,-10.26 -0.99,-12.98 -3.24,-5.28 -11.1,-13.37 -18.65,-13.38 -3.88,0 -4.03,-0.27 -7.3,-0.53 -2.38,-0.2 -4.69,0.54 -7.54,0.5z"/>
   <path class="fil11" d="M89.96 86.12c3.45,-1.2 3.83,1.17 7.36,-1.4 -0.12,-2.89 -4.24,-12.63 -6.13,-14.8l-6.09 5.22 4.86 10.98z"/>
   <path class="fil12" d="M169.6 190.3c1.98,2.76 1.69,2.98 5,3.9 6.14,2.87 7.13,0.51 9.72,4.13l4.15 6.14c3.1,-4.38 2.33,-17.55 -18.87,-14.17z"/>
   <path class="fil16" d="M207.39 21.88l28.13 3.32 2.55 -0.06 0.84 -2.03c-9.03,-2.72 -20.61,-3.98 -30.11,-4.52 0.66,1.63 -0.15,1.52 0.94,0.82 -3.66,-0.88 -0.74,-0.21 -3.08,0.41l0.73 2.06z"/>
   <path class="fil6" d="M345.44 211.36l-6.34 -0.27c-1.4,-2.96 -0.22,-3.2 -2.5,-5.59l-1.86 5.59 -6.06 0.7 4.76 3.42c-0.6,3.55 -1.47,3.04 -1.29,6.8l5.12 -4.15 4.82 3.28 -1.43 -6.08 4.78 -3.7z"/>
   <path class="fil28" d="M324.69 130.18l3.07 6.34c3.71,0.43 8.51,-1.52 10.28,-4.76 0.01,-2.53 -1.42,-4.96 -2.89,-6.89l-10.46 5.31z"/>
   <path class="fil13" d="M51.03 215.59l-1.26 6.11 4.8 -3.56 5.16 3.31c-0.61,-3.05 -1.37,-2.67 -1.31,-6.2l4.28 -3.42 -5.96 -0.6c-1.35,-2.76 -0.66,-2.95 -2.47,-5.16l-2.08 5.4 -6.3 0.52 5.14 3.6z"/>
   <path class="fil28" d="M60.92 166.09l11.74 2.86c1.28,-2.94 2.03,-4.97 1.28,-7.79 -2.86,-1.64 -7.5,-2.4 -10.72,-1.96l-2.3 6.89z"/>
   <path class="fil3" d="M128.79 261.69c-4.66,1.82 -6.92,5.91 -8.1,10.62l3.38 3.7 2.33 -0.1c0.54,-5.28 4.92,-10.46 7.58,-14.83 -2.08,-0.47 -3.58,-0.97 -5.19,0.61z"/>
   <path class="fil1" d="M182.39 138.87l0.01 0.33c3.58,2.24 2.49,2.58 4.05,6.26 4.94,-0.76 14.77,-3.99 18.79,-6.79 -2.66,0.04 -4.94,0.67 -7.63,0.71 -3.38,0.06 -5.28,-1.05 -8.04,-1.16 -4.83,-0.2 -2.28,1.42 -7.44,-1.15 -3.06,-1.53 -2.57,-1.08 -5.45,-1.28l5.71 3.08z"/>
   <path class="fil6" d="M228.38 134.21c0.54,-0.65 1.81,-0.22 -0.98,-1.06l0.71 -2.64 -1.77 2.81c-1.33,-1.18 -2.53,-1.88 -2.51,-3.81 0.02,-2.51 1.76,-0.37 0.09,-3.34 -4.21,2.09 -1.9,4.73 0.71,7.21 -4.25,-0.76 -2.49,-7.07 -0.63,-9.46 3.17,-4.1 6.83,-1.3 4.8,3.09 0.9,1.04 -0.88,1.29 1.66,0.73l2.5 -1.07 -0.5 -4.8 -2.71 -1.62c-3.76,-0.75 -3.6,-0.85 -7.05,0.81 -2.09,4.57 -3.37,9.71 -0.6,14.48 2.14,0.56 6.7,1.71 6.28,-1.33z"/>
   <path class="fil6" d="M231.5 159.03c3.94,-1.06 1.18,-5.87 8.6,-6.25 0.02,0.09 -0.07,0.15 -0.07,0.27 -0.04,1.27 -0.65,0.98 -0.04,2.54l9.57 0.7c-0.98,-3.37 -0.03,-0.91 -1.61,-2.64l-2.3 -2.55c-0.78,-0.61 -4.13,-1.58 -5.93,-1.94 -7.15,-1.42 -9.6,3.57 -8.22,9.87z"/>
   <path class="fil6" d="M277.75 373.74l1.53 0.48 -1.68 1.78c3.86,-0.29 27.22,-14.47 29.5,-18.4l0.97 -1.59c-3.53,0.5 -11.3,6.56 -15.07,8.9 -2.69,1.68 -4.36,3.46 -7.21,4.83 -2.92,1.4 -5.31,2.23 -8.04,4z"/>
   <path class="fil24" d="M42.9 162.24l10.76 2.29c0.79,-3.08 2.61,-5.91 0.01,-7.73 -2.12,-1.49 -6.37,-1.74 -8.67,-1.3l-2.1 6.74z"/>
   <path class="fil26" d="M109.36 177.86l-0.06 1.4 2.15 0.72c1.35,-0.04 5.17,-0.54 6.13,-0.26 4.52,1.3 -1.74,0.53 3.95,2.71 2.16,0.83 6.29,3 7.53,3.39 -1.99,-3.12 -6.17,-9.27 -9.76,-9.54 -4.09,-0.69 -6.75,-4.02 -9.94,1.58z"/>
   <path class="fil11" d="M234.57 56.85l0.66 -0.05c1.35,-3.72 2.68,-2.93 3.11,-6.34 0.61,-4.86 1.09,-0.85 2.63,-6.02 0.68,-2.26 4,-3.46 5.3,-3.29 3.53,0.47 3.21,3.32 7.08,0.44 -5.42,-2.01 -9.44,-4.62 -14.44,-0.35 -2.63,2.24 -5.35,12.39 -4.34,15.61z"/>
   <path class="fil19" d="M182.19 150.39l-1 1.66c1.97,2.71 11.8,2.55 17.27,7.26l0.85 -2.18c-0.31,-3.49 -4.21,-6.44 -7.31,-7.26 -6.83,-1 1.64,-3.33 -5,-3.19 1.53,3.05 6.47,4.23 7.06,7.26 -3.73,-1.46 -6.78,-4.59 -11.87,-3.55z"/>
   <path class="fil3" d="M252.45 57.26l-2.31 -0.07c0.2,6.22 3.67,7.33 8.47,7.46l2.19 -3.23c0.87,-2.2 2.06,-6.25 1.64,-9.07l-2.36 1.24 -1.75 5.04 -5.88 -1.37z"/>
   <path class="fil11" d="M72.44 87.39l-0.72 2.21 5.06 1.33c2.65,-1.55 1.01,-0.34 1.08,-1.48l-2 -1.47c5.12,2.34 4.43,-0.59 7.89,0.99 3.36,1.53 4.09,2.9 8.43,1.78 -3.86,-1.16 -0.68,-0.19 -1.94,-1.82 -3.56,-1.66 -9.84,-5.45 -13.38,-5.69 -2.07,2.19 -1.65,2.6 -4.42,4.15z"/>
   <path class="fil11" d="M281.08 113.8l0.77 -7.14c7.4,-5.86 14.46,-12.68 20.82,-19.26 3.45,-3.57 2.76,-1.81 1.59,-3.04 -3.11,1.45 -21.16,18.33 -23.9,21.55 -0.23,2.21 -0.68,6.87 0.72,7.89z"/>
   <path class="fil16" d="M112.06 181.26l0.12 3.17 4.63 2.38c-0.06,2.84 7.56,3.25 8.82,3.07l2.73 -2.32c-4.63,-1.49 -3.6,-1.99 -6.77,-3.53 -3.52,-1.71 -3.92,-1.02 -5.44,-3.05l-4.09 0.28z"/>
   <path class="fil11" d="M163.12 299.44c-0.54,0.16 -0.01,-0.12 -0.43,1.18 0.26,-0.03 0.62,-0.35 0.77,-0.12 0.76,1.18 -0.09,-0.26 3.8,-0.56 0.48,-1.77 -0.11,0.87 -0.37,-1.89 3.86,-2.29 9.96,-1.46 14.76,-1.57 6.68,-0.15 8.1,5.97 10.09,4.32l-5.98 -6.44c-4.59,-0.26 -9.24,-0.18 -13.79,-0.17 -5.14,0.01 -6.52,0.92 -8.85,5.25z"/>
   <path class="fil6" d="M179.96 229.57c6.94,0.49 12.28,-7.03 9.83,-12.89 -3.64,0.57 -3.24,2.5 -5.43,6.13 -1.97,3.27 -3.5,2.93 -4.4,6.76z"/>
   <path class="fil28" d="M244.05 55.57l2.39 0.49c1.75,-1.81 1.49,-2.62 2.29,-0.5l2.24 -1.16 1.83 -4.56c-2.46,-2.08 -5.04,-2.92 -7.94,-2.59l-2.15 7.13 1.34 1.19z"/>
   <path class="fil5" d="M112.06 181.26l4.09 -0.28c1.52,2.03 1.92,1.34 5.44,3.05 3.17,1.54 2.14,2.04 6.77,3.53l-2.73 2.32 -1.79 1.7 -0.62 2.65 0.18 -0.46c2.01,-1.28 1.06,-0.06 1.83,-2.89l2.77 -0.48 0.07 0.91 1.31 -0.5 3.4 -3 -3.72 -1.99c-1.24,-0.39 -5.37,-2.56 -7.53,-3.39 -5.69,-2.18 0.57,-1.41 -3.95,-2.71 -0.96,-0.28 -4.78,0.22 -6.13,0.26l-4.28 2.13 1.59 2.48c1.78,-3.02 -0.96,-0.54 3.3,-3.33z"/>
   <path class="fil10" d="M384 176.83c0,-11.76 -3.46,-24.42 -7.1,-35.33 -0.62,-1.87 -1.21,-3.53 -1.8,-5.41 -1.95,-6.22 -1.39,-3.89 -2.84,-4.58 2.48,6.36 5.27,14.74 6.83,21.39 1.18,5.05 3.36,20.9 4.91,23.93z"/>
   <path class="fil11" d="M231.2 294.41l-29.63 0.08 0.04 7.98 2.26 0.14c-3.26,-0.61 -2.3,-2.1 -1.92,-6.08l27.64 -0.29 1.61 -1.83z"/>
   <path class="fil11" d="M240.58 311.31l0.57 -8.53c2.96,-1.54 4.51,-1.78 6.9,-4.18 3.25,-3.28 3.79,-2.77 8.69,-2.41l1.08 -1.88c-4.38,-0.02 -6.92,-0.87 -10.52,1.75 -8.6,6.25 -7.64,4.08 -7.66,10.36 -0.01,3.15 -0.43,2.85 0.94,4.89z"/>
   <path class="fil28" d="M193.59 47.2c-3.54,1.56 -1.04,0.48 -1.61,1.66 2.08,3.87 5.85,3.5 9.62,2.49 0.17,-4.17 1.15,-7.77 -0.51,-11.34l-0.12 6.53 -7.38 0.66z"/>
   <path class="fil7" d="M253.48 127.07c4.59,3.49 4.12,0.91 9.45,7.01 -3.3,-1.1 -4.58,-3.49 -9.06,-4.15 6.06,2.05 6.13,7.69 12.04,6.41 1.4,-6.47 -7.27,-9.5 -12.43,-9.27z"/>
   <path class="fil1" d="M228.11 130.51l0.25 -0.63 0.44 -2.87c2.03,-4.39 -1.63,-7.19 -4.8,-3.09 -1.86,2.39 -3.62,8.7 0.63,9.46 -2.61,-2.48 -4.92,-5.12 -0.71,-7.21 1.67,2.97 -0.07,0.83 -0.09,3.34 -0.02,1.93 1.18,2.63 2.51,3.81l1.77 -2.81z"/>
   <path class="fil6" d="M136.05 209.07c2.02,-2.54 3.21,-6.57 4.99,-8.89 1.71,-2.25 5.25,-5.17 7.31,-7.29 -6.71,-2.88 -12.67,10.54 -12.3,16.18z"/>
   <path class="fil24" d="M277.44 68.19c1.61,-1.14 2.64,-2.7 3.08,-4.78 -2.1,-1.68 -3.39,-2.86 -6.08,-3.06l-1.48 1.37 0.65 5.42 3.83 1.05z"/>
   <path class="fil8" d="M318.82 54.4c-1.69,-2.75 -16.44,-13.77 -20.07,-15.18l0.71 2.23c1.79,-0.5 7.16,4.64 8.52,7.88 3.97,0.07 7.56,2.1 9.13,5.6l1.71 -0.53z"/>
   <path class="fil23" d="M262.13 174.46c0.5,-5.74 -6.92,-12.63 -11.45,-12.55 -0.04,2.7 3.25,4.45 5.54,5.87 4.29,2.69 2.48,3.76 5.91,6.68z"/>
   <path class="fil6" d="M224.04 96.45c3.55,3.58 4.12,-0.01 6.62,3.84 2.96,-3.15 5.16,-1.37 8.06,-3.74 -4.49,0.95 -1.78,0.21 -2.73,-0.4l-6.01 -1.8c-1.8,1.86 0.45,0.23 -2.57,1.11 -2.24,0.65 -1.02,0.53 -3.37,0.99z"/>
   <path class="fil5" d="M219.57 126.32c-0.5,2.61 -0.76,3.75 -0.32,6.46 0.63,3.9 1.85,2.63 0.32,3.93l2.17 2.15c2.86,-1.89 5.28,-0.53 6.64,-4.65 0.42,3.04 -4.14,1.89 -6.28,1.33 -2.77,-4.77 -1.49,-9.91 0.6,-14.48 3.45,-1.66 3.29,-1.56 7.05,-0.81l-3.64 -1c-4.14,1.01 -5.55,2.85 -6.54,7.07z"/>
   <path class="fil7" d="M205.82 276.37c4.1,-0.08 10.21,-4.72 16.15,-5.58 -4.27,-2.94 -13.96,1.22 -16.15,5.58z"/>
   <path class="fil20" d="M123.22 194.23l0.62 -2.65c-3.82,0.13 -0.96,0.45 -3.79,-1.98l-6.81 0.26c1.42,1.78 -0.01,1.08 3.51,1.44 -2.16,1.87 -0.82,0.57 -0.87,1.58l5.13 2.99 2.21 -1.64z"/>
   <path class="fil6" d="M163.59 220.83c2.35,1.23 -0.38,2.51 -0.28,6.52 2.54,-1.02 0.51,-0.13 2.47,-1.69 3.2,-2.56 1.26,-1.75 2.34,-0.06 2.12,-1.22 0.82,0.93 2.21,-2.09 -1.14,-2.67 -2.87,-3.52 -5.92,-4.83 -1.07,0.88 -0.8,-1.17 -0.82,2.15z"/>
   <path class="fil28" d="M184.51 40.43l0.26 9.59c1.16,-5.12 1.09,-4.89 6.16,-4.48l-0.24 -4.82 -6.18 -0.29z"/>
   <polygon class="fil14" points="139.37,185.99 146.06,189.36 147.83,180.41 "/>
   <path class="fil5" d="M145.08 39.87l9.05 -2.05c2.06,1.8 0.31,0.61 2.46,-0.04 -0.41,-0.5 -1.25,-1.44 -1.62,-1.77 -1.63,-1.49 -2.56,-1.62 -4.46,-0.96l-2.19 1.07c-2.72,1.36 -2.46,0.87 -3.24,3.75z"/>
   <path class="fil22" d="M243.66 159.17l1.32 -0.48c-3.78,-1.95 -3.29,-3.03 -7.83,-2.54 -2.22,2.48 -3.37,3.43 -2,6.47 5.33,-0.93 1.11,-0.79 1.65,-3.7l6.86 0.25z"/>
   <path class="fil5" d="M248.42 165.51l-2.42 -1.15c2.89,-3.67 2.26,-1.23 3.99,-4.19l-5.01 -1.48 -1.32 0.48 2.23 2.07 -4.25 0.99c2.71,1.83 -0.41,1.43 3.84,1.1 -3.11,3.66 -0.78,1.5 -0.15,3.17l3.09 -0.99z"/>
   <path class="fil22" d="M233.71 197.17c2.71,-1.31 3.64,-1.61 4.92,-4.26 -1.77,-1.13 -1.4,-1.3 -2.23,-2.19 -3.74,0.23 -1.38,0.94 -5,2.37l2.31 4.08z"/>
   <path class="fil6" d="M183.72 241.68c4.73,0.55 8.04,-0.19 11.94,-2.91 -4.62,-0.35 -9.97,-0.96 -11.94,2.91z"/>
   <path class="fil7" d="M212.15 276.29l13.3 0.04c-3.97,-4.03 -9.25,-3.28 -13.3,-0.04z"/>
   <path class="fil16" d="M150.96 140.5c0.98,1.8 2.26,1.65 4.32,1.98l1.24 -1.4c-1.9,-1.18 -1.59,-0.06 -1.33,-1.77 3.56,-2.7 1.02,-2 6.1,-4.43 -4.73,0.63 -6.92,1.68 -10.33,5.62z"/>
   <path class="fil10" d="M368.1 277.07c2.2,-0.2 2.03,-0.92 3.01,-3.56 0.6,-1.63 1.22,-2.97 1.8,-4.6 1.28,-3.61 2.82,-7.14 3.09,-11.06l-7.9 19.22z"/>
   <path class="fil7" d="M199.31 157.13c2.39,-0.64 0.22,-0.82 2.73,0.92l1.15 -2.95c-3.37,-0.77 -9.42,-8.11 -11.19,-5.23 3.1,0.82 7,3.77 7.31,7.26z"/>
   <path class="fil6" d="M257.84 243.21c-3.94,-4.24 -4.5,-1.55 -7.87,-9.19 -0.42,5.61 2.34,9.13 7.87,9.19z"/>
   <path class="fil15" d="M174.36 200.68c-0.87,-0.72 -0.48,-0.36 -1.19,-1.21l-1.55 -1.92 -3.42 1.49c0.28,0.36 0.56,0.41 0.69,0.76 0.37,0.95 2.47,0.75 2.47,0.75 -1.07,-0.01 -1.03,-0.4 -1.87,1.59 3.05,0.32 2.64,0.75 4.87,-1.46z"/>
   <path class="fil5" d="M238.31 130.45c2.91,-0.44 6.99,-0.66 9.94,-1.52 -3.19,-2.16 -7.32,-1.4 -9.94,1.52z"/>
   <path class="fil5" d="M139.28 172.61c4.3,-0.34 6.7,-3 7,-7.19l-7 7.19z"/>
   <path class="fil15" d="M312 355.01l1.93 -1.41 0.7 -2.41c-1.19,0.05 -2.21,-0.47 -3.9,1.12 -1.49,1.4 -1.11,2.13 -1.3,3.02l2.57 -0.32z"/>
   <path class="fil11" d="M274.86 58.13c1.78,2.37 0.51,0.67 2.84,-1.28 1.37,-1.15 0.89,0.29 2.93,-1.8l-1.13 -1.38c-2.88,0.39 -3.02,1.73 -4.64,4.46z"/>
   <path class="fil28" d="M187.64 63.57c1.92,4.6 1.54,2.22 3.57,4.38l0.06 -4.82 -3.63 0.44z"/>
   <path class="fil15" d="M204.22 176.08l1.04 -0.73c-2.25,-2.38 -2.78,-2.64 -6.04,-2.51 1.77,2.47 1.89,2.34 5,3.24z"/>
   <path class="fil15" d="M106.27 193.32l0.96 -4.27c-2.55,1 -2.44,0.62 -3.42,3.3l2.46 0.97z"/>
   <path class="fil5" d="M229.57 139.03l2.59 -2.13 1.69 -3.83c-3.04,1.89 -3.34,2.36 -4.28,5.96z"/>
   <path class="fil15" d="M244.68 138.34l0.11 2.82 3.08 -1.03c-0.99,-2.65 -0.72,-2.57 -3.19,-1.79z"/>
   <path class="fil5" d="M108.96 199.36c-0.86,-1.35 0.02,-0.93 -2.03,-2.36 -2.03,-1.41 -1.08,-0.59 -2.44,-0.93 0.92,2.9 1.18,2.73 4.47,3.29z"/>
   <path class="fil15" d="M173.27 225.59c3.06,-0.67 2.2,-0.09 3.37,-2.39l-1.08 -1.47 -2.29 3.86z"/>
   <path class="fil5" d="M228.36 129.88l2.1 -2.14c-2.54,0.56 -0.76,0.31 -1.66,-0.73l-0.44 2.87z"/>
  </g>
 </g>
</svg>
